<svg width="98" height="21" viewBox="0 0 98 21" fill="none" xmlns="http://www.w3.org/2000/svg">
<path d="M7.78986 1.84489H6.77199C6.39146 1.84489 6.0184 1.91473 5.654 2.05567C5.28973 2.19673 4.96693 2.42006 4.68533 2.7262C4.40373 3.03273 4.17706 3.43795 4.0028 3.94328C3.82893 4.44848 3.74199 5.0741 3.74199 5.81783C3.74199 6.53063 3.82026 7.12633 3.97826 7.60673C4.13506 8.08713 4.35013 8.47594 4.62333 8.77421C4.89706 9.07168 5.21973 9.2826 5.59199 9.40727C5.96466 9.53087 6.35813 9.5933 6.77199 9.5933H7.78986V1.84489ZM6.20013 11.1829L3.17093 17.9875H0.96106L4.28893 10.7113C3.5096 10.3135 2.88066 9.72967 2.40106 8.96021C1.92066 8.19021 1.68106 7.1433 1.68106 5.81783C1.68106 4.89116 1.81746 4.07622 2.09066 3.37142C2.3636 2.66835 2.73666 2.08449 3.2076 1.62142C3.6796 1.15809 4.22986 0.810748 4.85959 0.578614C5.48853 0.346214 6.15106 0.230633 6.84653 0.230633H9.70226V17.9875H7.78986V11.1829H6.20013Z" fill="#FF0000"/>
<path d="M51.1516 18.1615C49.8103 18.1615 48.7588 17.6275 47.998 16.5597C47.2356 15.4912 46.8555 13.8818 46.8555 11.729C46.8555 10.7517 46.9507 9.86614 47.1412 9.07174C47.3313 8.2772 47.6132 7.60226 47.9852 7.04732C48.3571 6.49372 48.8212 6.06281 49.376 5.75667C49.9304 5.45014 50.5715 5.29639 51.3001 5.29639C51.8637 5.29639 52.3191 5.35947 52.6664 5.48267C53.0137 5.60707 53.3287 5.7608 53.6103 5.94267L53.3373 7.78064C53.0716 7.54851 52.7621 7.34519 52.406 7.17212C52.0496 6.99825 51.6732 6.91093 51.2756 6.91093C50.5809 6.91093 50.0091 7.29988 49.562 8.07841C49.1156 8.85668 48.8911 10.04 48.8911 11.6297C48.8911 13.2027 49.0781 14.4164 49.4501 15.2687C49.8231 16.1209 50.4071 16.5468 51.2012 16.5468C51.6815 16.5468 52.0953 16.4683 52.4427 16.3113C52.7908 16.1535 53.0803 15.9757 53.3124 15.7769L53.7595 17.2173C53.4276 17.4989 53.0557 17.7268 52.6419 17.901C52.228 18.0741 51.7315 18.1615 51.1516 18.1615V18.1615ZM41.1925 11.7536V17.988H39.2556V5.47054H41.1925V11.257L44.198 5.47054H46.16L43.0555 11.3572L46.6068 17.988H44.4959L41.1925 11.7536ZM33.8172 6.88599C33.2208 6.88599 32.7989 7.2216 32.5511 7.89254C32.3016 8.56334 32.1448 9.46091 32.0789 10.5869H35.2821C35.2821 10.0574 35.2576 9.56492 35.2073 9.10905C35.1577 8.65372 35.0792 8.26093 34.9719 7.92879C34.8633 7.59813 34.7148 7.34188 34.5247 7.15934C34.3343 6.97748 34.0988 6.88599 33.8172 6.88599V6.88599ZM37.2936 17.1433C36.896 17.4581 36.4401 17.7056 35.9273 17.8883C35.4148 18.07 34.8437 18.1615 34.214 18.1615C32.9229 18.1615 31.9048 17.6615 31.1601 16.6587C30.4141 15.6579 30.0423 14.1884 30.0423 12.2515C30.0423 11.2408 30.1129 10.3133 30.2531 9.46932C30.3937 8.62452 30.6171 7.89253 30.9236 7.2712C31.2301 6.64973 31.6232 6.16598 32.1028 5.81864C32.5832 5.47051 33.1543 5.29639 33.8172 5.29639C34.3293 5.29639 34.8017 5.40066 35.2331 5.60706C35.6631 5.81452 36.0275 6.14971 36.3249 6.61344C36.6228 7.07651 36.8552 7.67747 37.0204 8.41374C37.1863 9.15027 37.2691 10.0486 37.2691 11.1077V12.1763H32.0544C32.0544 13.6004 32.248 14.6764 32.6368 15.4051C33.0261 16.1329 33.6101 16.4973 34.3879 16.4973C34.934 16.4973 35.4189 16.4025 35.8412 16.2116C36.2629 16.0211 36.5981 15.8352 36.8472 15.6527L37.2936 17.1433ZM25.9691 7.03573H23.8087V7.25907C23.8087 7.92161 23.7965 8.64571 23.772 9.43184C23.7463 10.2184 23.6925 11.0171 23.6099 11.8289C23.5271 12.6404 23.4111 13.4389 23.2625 14.2246C23.1132 15.0116 22.9057 15.7361 22.6412 16.3983H25.9691V7.03573ZM28.8747 20.4465H27.1365V17.988H21.7723V20.4465H20.034V16.3983H20.8032C21.0847 15.7361 21.3081 15.004 21.474 14.2001C21.6392 13.3969 21.768 12.5693 21.8588 11.7169C21.9499 10.8647 22.008 9.99505 22.0327 9.10905C22.0576 8.22358 22.0704 7.3668 22.0704 6.53906V5.47054H27.8815V16.3983H28.8747V20.4465ZM18.9164 5.47054V17.988H17.004V12.375H14.1232V17.988H12.1863V5.47054H14.1232V10.7853H17.004V5.47054H18.9164Z" fill="black"/>
<path d="M62.4013 1.24876V17.988H61.1601V1.24876H57.6581V0.231018H65.9273V1.24876H62.4013Z" fill="black"/>
<path d="M68.3871 17.2921C68.9664 17.2921 69.4589 17.0525 69.864 16.5721C70.27 16.0925 70.5885 15.512 70.8207 14.8336V11.3813H69.4793C68.4365 11.3813 67.6667 11.6304 67.17 12.1271C66.6733 12.6237 66.4251 13.4181 66.4251 14.5104C66.4251 15.4046 66.6027 16.0925 66.9595 16.5721C67.3152 17.0525 67.7907 17.2921 68.3871 17.2921ZM71.168 17.9876C71.1185 17.8221 71.0648 17.6112 71.0067 17.3545C70.9488 17.0979 70.9035 16.7453 70.8701 16.2981C70.5724 16.8945 70.1993 17.3667 69.7533 17.714C69.3059 18.0621 68.7676 18.2358 68.1387 18.2358C67.294 18.2358 66.6068 17.9169 66.0769 17.2793C65.5471 16.6428 65.2825 15.7528 65.2825 14.6103C65.2825 13.2689 65.6385 12.2552 66.3503 11.5681C67.0616 10.8813 68.0968 10.5375 69.4544 10.5375H70.8207V8.97225C70.8207 8.01225 70.6464 7.31692 70.2991 6.88599C69.9509 6.45585 69.4297 6.2408 68.734 6.2408C68.2045 6.2408 67.7079 6.36107 67.2445 6.60067C66.7807 6.84067 66.3993 7.17584 66.1016 7.60718L65.7792 6.48918C66.0275 6.15811 66.4039 5.86359 66.9092 5.60706C67.4141 5.35079 68.0223 5.22266 68.734 5.22266C69.7779 5.22266 70.5765 5.51627 71.1313 6.104C71.6851 6.69214 71.9632 7.60721 71.9632 8.84867V15.6776C71.9632 16.1088 71.9881 16.543 72.0373 16.9814C72.0868 17.4202 72.1525 17.7556 72.2361 17.9876H71.168Z" fill="black"/>
<path d="M75.8127 17.9875H74.6452V5.47087H75.8127V11.3571L80.0091 5.47087H81.1516L77.0293 11.2819L81.4495 17.9875H80.1584L75.8127 11.5057V17.9875Z" fill="black"/>
<path d="M86.1183 17.2177C86.5163 17.2177 86.8677 17.1512 87.1739 17.0189C87.4804 16.8867 87.7416 16.7297 87.9567 16.5468C88.2049 16.3655 88.42 16.1417 88.6025 15.8764L88.9745 16.8446C88.792 17.1104 88.5607 17.3417 88.2795 17.5405C88.0469 17.7227 87.7451 17.884 87.3727 18.0251C87 18.1656 86.5741 18.2358 86.0937 18.2358C84.8352 18.2358 83.8623 17.6682 83.1756 16.534C82.4884 15.4001 82.1452 13.8067 82.1452 11.754C82.1452 9.68479 82.4843 8.07881 83.1635 6.93587C83.8419 5.79334 84.8276 5.22266 86.1183 5.22266C86.7645 5.22266 87.3108 5.33413 87.7579 5.55786C88.2049 5.78159 88.5685 6.05866 88.8509 6.38973L88.5273 7.63131C88.2457 7.25104 87.9064 6.91961 87.5096 6.63814C87.1127 6.35654 86.6485 6.21545 86.1183 6.21545C85.1587 6.21545 84.4504 6.69625 83.9953 7.65625C83.5395 8.61705 83.3128 9.98332 83.3128 11.754C83.3128 13.476 83.5353 14.8173 83.9825 15.7773C84.43 16.7381 85.1413 17.2177 86.1183 17.2177" fill="black"/>
<path d="M96.5985 9.27012C96.5985 8.93905 96.6065 8.63705 96.6234 8.36412C96.6397 8.09092 96.6642 7.8221 96.6976 7.5569H96.6234C96.5406 7.8381 96.4409 8.10718 96.3257 8.36412C96.2096 8.62078 96.0849 8.88985 95.9526 9.17145L91.8798 17.988H90.8861V5.47089H91.9796V14.163C91.9796 14.4941 91.9702 14.8007 91.9538 15.0823C91.9376 15.3639 91.913 15.6446 91.8798 15.9262H91.9538C92.0366 15.6446 92.1368 15.3673 92.2525 15.0944C92.3677 14.821 92.4925 14.5441 92.6248 14.2625L96.6976 5.47089H97.7165V17.988H96.5985V9.27012Z" fill="black"/>
</svg>
