<?xml version="1.0" encoding="UTF-8"?>
<!DOCTYPE svg PUBLIC "-//W3C//DTD SVG 1.1//EN" "http://www.w3.org/Graphics/SVG/1.1/DTD/svg11.dtd">
<!-- Creator: CorelDRAW 2018 (64-Bit) -->
<svg xmlns="http://www.w3.org/2000/svg" xml:space="preserve" width="80.7676mm" height="102.763mm" version="1.1" style="shape-rendering:geometricPrecision; text-rendering:geometricPrecision; image-rendering:optimizeQuality; fill-rule:evenodd; clip-rule:evenodd"
viewBox="0 0 2590.64 3296.15"
 xmlns:xlink="http://www.w3.org/1999/xlink">
 <defs>
  <style type="text/css">
   <![CDATA[
    .fil0 {fill:black;fill-rule:nonzero}
    .fil1 {fill:white;fill-rule:nonzero}
   ]]>
  </style>
 </defs>
 <g id="Слой_x0020_1">
  <metadata id="CorelCorpID_0Corel-Layer"/>
  <polygon class="fil0" points="2585.27,1847.42 1274.83,2171.1 -0,1845.1 -0,3296.15 1274.83,2970.99 2585.27,3293.63 "/>
  <path class="fil1" d="M2069.09 2886.74l-97.87 -17.31c-3.6,-0.61 -6.27,-3.73 -6.27,-7.39l0 -239.23c0,-4.02 3.15,-7.29 7.14,-7.48l72.3 -3.39c3.99,-0.19 7.15,-3.51 7.15,-7.5l-0.08 -102.96c0,-4.26 -3.53,-7.68 -7.82,-7.48l-70.53 3.05c-4.29,0.17 -7.85,-3.24 -7.85,-7.5l0 -200.53c0,-3.66 2.66,-6.76 6.25,-7.39l98.54 -16.93c3.59,-0.63 6.25,-3.75 6.25,-7.41l0 -111.45c0,-4.77 -4.43,-8.36 -9.11,-7.32 -32.53,7.15 -151.37,32.94 -203.16,44.37 -3.44,0.78 -5.84,3.8 -5.84,7.34l0.34 770.08c0,3.54 2.42,6.59 5.86,7.31l201.92 45.43c4.65,1.02 9.1,-2.54 9.1,-7.34l0 -6.1 -0.05 -105.45c0,-3.68 -2.64,-6.83 -6.27,-7.41z"/>
  <path class="fil1" d="M1149.95 2551.42c-1.72,-0.26 -3.17,-1.55 -3.56,-3.27l-2.01 -8.31 -60.19 -261.03c-0.65,-2.69 -2.68,-4.85 -5.35,-5.57l-67.86 -14.97c-4.68,-1.04 -9.11,2.5 -9.11,7.29l-0.07 590.89c0,6.06 0.29,18.5 0.29,18.5l0.03 9.54c0,4.77 4.41,8.31 9.1,7.27l64.18 -13.97c3.41,-0.75 5.88,-3.78 5.88,-7.32l0.05 -309.1c0,-1.98 1.74,-3.55 3.73,-3.29l3.39 0.46c1.33,0.19 2.42,1.16 2.76,2.49l70.97 290.67c0.97,3.95 4.91,6.4 8.89,5.53l56.21 -12.43c3.41,-0.75 5.84,-3.8 5.84,-7.29l0.02 -11.41 0.1 -513.14c0,-3.53 -2.46,-6.59 -5.88,-7.34l-58.15 -12.69c-4.65,-0.99 -9.05,2.55 -9.05,7.32l-0.46 247.59c0,2.66 -2.35,4.67 -4.99,4.29l-4.75 -0.71z"/>
  <path class="fil1" d="M1470.05 2882.03c50.86,11.34 78.83,-31.9 78.86,-83.99l0.05 -230.12c0,-4.14 -3.34,-7.46 -7.44,-7.46l-100.31 -0.12c-4.12,0 -7.48,3.32 -7.48,7.45l0 84.81c0,3.95 3.08,7.19 7,7.44l19.54 1.31 -0.94 104.16c-0.07,8.69 -7.68,15.5 -16.35,14.58l-36.06 -3.3c-10.72,-1.46 -18.91,-10.34 -19.44,-21.16 -0.17,-3.56 -0.36,-7.8 -0.61,-12.77 -0.16,-3.9 -0.16,-7.79 -0.16,-11.69 -0.03,-107.37 0.02,-321.29 0.02,-321.29l0 -21.21c0,-20.05 24.87,-23.91 24.87,-23.91l22.6 -2.74c10.58,-1.4 20.01,6.83 19.98,17.51l-0.05 13.92 0.6 60.98 0.12 6.88c0.08,4.19 3.54,7.51 7.7,7.36l74.76 -2.54c4.04,-0.13 7.24,-3.49 7.21,-7.56l-1.21 -104.21c0,-57.98 -25.09,-93.46 -70.21,-83.07l-42.82 9.54c0,0 -44.42,8.81 -77.91,16.71 -53.16,12.52 -54.13,36.92 -55.39,91.4l0 176.85c-0.34,0 0.32,0 0,0l-0.36 200.09c-0.1,48.46 12.16,80.62 59.24,92.06l114.19 24.08z"/>
  <path class="fil1" d="M1623.71 2914.91l174.47 38.46c4.58,1.02 8.92,-2.47 8.92,-7.17l-0.25 -98.67c0,-3.61 -2.64,-6.68 -6.17,-7.22l-76.36 -11.84c-3.58,-0.55 -6.2,-3.63 -6.2,-7.24l0 -596.48c0,-4.67 -4.29,-8.16 -8.84,-7.19l-85.66 18.19c-3.41,0.75 -5.79,3.71 -5.79,7.19l0.14 664.81c0,3.43 2.35,6.41 5.74,7.17z"/>
  <path class="fil1" d="M837.95 2893.35c0,6.49 -0.03,19.47 -0.03,19.47l-0.02 7.39c0,4.77 4.43,8.34 9.1,7.29l78.06 -17.14c3.44,-0.75 5.86,-3.8 5.86,-7.34l-0.03 -18.46 0 -313.26c0,-95.16 0.17,-286.92 0.22,-323.85 0,-3.51 -2.4,-6.54 -5.83,-7.29l-78.13 -17.41c-4.68,-1.04 -9.1,2.52 -9.1,7.29l-0.1 663.32z"/>
  <path class="fil1" d="M291.53 2215.16c33.43,7.27 57.43,34.9 57.84,69.1 0.46,39.38 0.99,89.53 1.16,110.41l-0.24 131.1c-0.25,28.58 -21.43,55.15 -53.74,55.15l-23.44 1.25c-4.29,0.22 -7.87,-3.14 -7.87,-7.41 -0.02,-29.72 -0.05,-135.65 -0.05,-181.88 -0.02,-44.66 0,-143.57 0.03,-174.18 0,-4.77 4.41,-8.28 9.05,-7.27l17.27 3.73zm-9.42 -117.09l-120.7 -25.85c-4.65,-0.94 -9.01,2.59 -9.01,7.32l-0.02 990.37c0,4.8 4.41,8.36 9.1,7.32l97.79 -21.7c3.42,-0.75 5.84,-3.8 5.84,-7.32l0 -349.78c0,-3.95 3.1,-7.24 7.04,-7.46l42.65 -2.49c73.62,-4.5 131.24,-65.25 131.82,-139.04l0.46 -56.89 0 -151.99 0.46 -84.94c0.39,-70.31 -48.22,-131.34 -116.85,-146.64l-48.58 -10.9z"/>
  <path class="fil1" d="M672.23 2482.82c-0.39,9.98 -1.46,18.12 -2.81,24.63 -2.79,13.47 -14.63,23.13 -28.39,23.18l-32.31 0.12c-4.17,0.02 -7.53,-3.29 -7.53,-7.44 -0.03,-22.69 -0.1,-90.43 -0.1,-120.44l-0.08 0c0,-28.55 0.03,-96.49 0.03,-121.89 0,-4.94 4.72,-8.5 9.49,-7.17l26.54 7.36c19.98,5.55 34.08,23.32 34.92,44.03 1.91,50.9 2.08,106.7 0.22,157.61zm92.59 -198.03c0,-54.64 -20.66,-83.63 -73.31,-95.98l-180.21 -39.65c-4.68,-1.01 -9.08,2.55 -9.08,7.34l0.12 836.31c0,4.75 4.42,8.29 9.08,7.32l84.21 -18.14c3.44,-0.72 5.94,-3.8 5.94,-7.31l-0.54 -351.85c-0.02,-4.09 3.27,-7.45 7.37,-7.5 5.91,-0.08 16.18,-0.1 33.2,0.07 18.67,0.2 30.93,15.94 32.4,33.02 1.53,16.71 -0.12,30.58 0,46.16 0.66,72.29 -0.32,139.4 1.17,211.69l1.54 48.78c0.15,4.7 4.58,8.12 9.18,7.05l76.97 -16.71c3.41,-0.78 5.83,-3.8 5.83,-7.29l0.17 -80.31c0,0 0.58,-130.75 0.16,-196.1 -0.26,-41.46 -7.68,-79.87 -53.64,-100.7 42.17,-19.64 48.9,-53.93 49.43,-93.31l0 -182.87z"/>
  <path class="fil1" d="M2434.45 2811.57c0,3.49 -0.03,100.53 -0.03,103.95 0,138.63 -27.52,182.54 -157.98,152.09 -97.43,-22.72 -148.65,-33.88 -148.65,-186.8l0 -175.54c0,-11.84 8.19,-13 44.58,-12.35 36.69,0.68 60.84,0.97 60.84,11.62l0 165.46c0,61.57 10.87,65.9 42.07,71.57 25.77,4.7 40.61,-2.18 41.68,-37.39 -0.26,-22.7 0,-86.54 0,-105.24 0,-162.53 -187.98,-236.83 -187.98,-468.61 0,-7.26 0.16,-64.2 0.16,-71.01 0,-131.38 40.69,-153.76 146.91,-175.48 108.74,-22.26 155,-24 155,113.73l0 204.82c0,9.47 -16.54,8.37 -49.14,9.03 -36.16,0.73 -58.24,1.12 -58.24,-8.25l0 -151.76c0,-36.74 -13.32,-52.33 -38.63,-47.71 -27.85,5.11 -41.68,14.14 -42.4,48.32 -0.44,20.1 0,64.95 0,82.24 0,166.96 191.81,225.33 191.81,477.3z"/>
  <path class="fil0" d="M1179.99 2191.65c-594.64,-0.03 -1069.78,-310.02 -1155.52,-753.85 -49.84,-258.07 38.12,-524.09 247.61,-749.03 205.91,-221.09 505.66,-376.45 844,-437.44 101.52,-18.29 204.29,-27.58 305.47,-27.58 594.61,0 1069.78,309.99 1155.49,753.85 49.81,258.07 -38.12,524.09 -247.61,749.03 -205.93,221.09 -505.66,376.46 -843.97,437.44 -101.53,18.31 -204.26,27.58 -305.37,27.58l-0.1 0z"/>
  <path class="fil1" d="M119.15 1437.42c93.22,499.75 697.86,806.18 1350.43,684.44 652.62,-121.77 1106.04,-625.61 1012.8,-1125.36 -93.29,-499.8 -697.88,-806.21 -1350.45,-684.44 -652.6,121.75 -1106.02,625.62 -1012.77,1125.37z"/>
  <path class="fil0" d="M1088.16 679.7c10.58,78.01 -24.95,143.13 -79.29,145.19 -54.69,2.16 -110.32,-61.58 -120.61,-140.56 -10.57,-78.9 28.11,-142.21 82.68,-143.57 54.47,-1.21 106.73,60.98 117.22,138.94z"/>
  <path class="fil0" d="M1920.25 598.25c5.64,68.85 -28.02,121.48 -75.73,117.41 -47.84,-4.04 -93.48,-65.39 -98.91,-135.04 -5.47,-69.53 31.05,-120.29 78.81,-115.5 47.59,4.89 90.46,64.35 95.83,133.13z"/>
  <path class="fil0" d="M2268.18 805.46c-10.88,-6.34 -20.2,1.67 -14.82,13.32 24,51.93 23.51,130.23 -55.88,130.23 -88.27,0 -205.18,-112.44 -364,-112.44 -112.62,0 -236.13,78.54 -247.29,250.27 -74.77,-113.95 -205.67,-191.01 -365.44,-191.01 -288.95,0 -495.19,352.17 -737.89,352.17 -104.82,0 -135.99,-94.75 -113.18,-164.78 3.66,-11.27 -9.22,-20.56 -18.42,-13.39 -83.19,64.95 -111.89,177.37 -111.89,286.29 0,293.33 298.65,542.95 699.05,542.95 380.21,0 701.98,-228.74 715.23,-562.23 77.09,111.7 208.84,176.07 339.76,176.07 215.06,0 414.57,-151.05 414.57,-406.34 0,-117.61 -62.77,-256.23 -139.79,-301.09z"/>
  <path class="fil0" d="M903.91 5.4c-156.92,-5.83 -293.66,141.08 -304.94,327.41 -0.56,9.18 -0.78,18.72 -0.65,29.18 0.08,6.72 5.18,12.36 11.89,13.08 0.49,0.05 0.95,0.07 1.43,0.07 6.1,0 11.56,-4.23 12.94,-10.32 34.56,-150.37 173.84,-255.17 330.68,-249.47 36.11,1.33 71.18,8.52 104.29,21.38 9.9,3.84 20.83,0.31 27.12,-8.75 7.17,-10.29 6.5,-24.38 -1.55,-33.54 -48.48,-54.9 -112.81,-86.51 -181.2,-89.05z"/>
  <path class="fil0" d="M1995.88 227.18c-2.3,-9.22 -4.38,-16.8 -6.61,-23.81 -26.35,-82.15 -79.41,-148.34 -145.57,-181.57 -47.54,-23.88 -96.85,-28.24 -142.51,-12.62 -46.78,16.01 -85.63,52.63 -109.44,103.13 -5.06,10.73 -2.17,23.4 6.96,30.83 8.72,7.04 20.59,7.26 29.47,0.51 18.8,-14.22 39.45,-25.28 61.49,-32.79 108.65,-37.16 226.95,15.59 281.39,125.42 2.31,4.63 7,7.39 11.92,7.39 1.5,0 3.1,-0.24 4.58,-0.82 6.39,-2.32 9.96,-9.07 8.33,-15.67z"/>
 </g>
</svg>
