<svg width="229" height="230" viewBox="0 0 229 230" fill="none" xmlns="http://www.w3.org/2000/svg">
<path fill-rule="evenodd" clip-rule="evenodd" d="M114.417 0.92136C145.989 0.92136 174.571 13.718 195.261 34.4078C215.951 55.0977 228.748 83.6803 228.748 115.252C228.748 146.823 215.951 175.406 195.261 196.096C174.571 216.786 145.989 229.583 114.417 229.583C82.8457 229.583 54.2631 216.786 33.5732 196.096C12.8837 175.406 0.0866699 146.823 0.0866699 115.252C0.0866699 83.6803 12.8837 55.0977 33.5732 34.4078C54.2631 13.718 82.8457 0.92136 114.417 0.92136ZM130.123 155.419C134.507 157.366 138.464 160.102 141.811 163.449C148.821 170.46 153.157 180.145 153.157 190.843C153.157 201.54 148.821 211.225 141.811 218.236C139.634 220.413 137.198 222.332 134.555 223.944C141.849 221.117 148.402 216.8 153.837 211.365C163.925 201.276 170.165 187.339 170.165 171.945C170.165 156.551 163.925 142.613 153.837 132.525C146.701 125.388 137.638 120.179 127.496 117.741V115.798C138.161 118.272 147.691 123.706 155.173 131.189C165.604 141.619 172.055 156.029 172.055 171.945C172.055 187.861 165.604 202.27 155.173 212.701C151.53 216.345 147.4 219.502 142.89 222.069C152.053 218.285 160.299 212.73 167.2 205.829C180.708 192.321 189.063 173.66 189.063 153.047C189.063 132.434 180.708 113.773 167.2 100.265C160.643 93.7078 152.871 88.3659 144.253 84.6038V82.5459C153.391 86.4176 161.623 92.015 168.536 98.9285C182.386 112.779 190.953 131.913 190.953 153.047C190.953 174.182 182.386 193.315 168.536 207.166C163.415 212.287 157.57 216.685 151.17 220.195C162.225 215.467 172.185 208.672 180.562 200.295C197.49 183.367 207.961 159.981 207.961 134.15C207.961 108.318 197.491 84.9323 180.562 68.0045C168.293 55.7353 152.631 46.8607 135.105 42.9039V40.9673C153.154 44.9561 169.284 54.0538 181.899 66.6679C199.169 83.9382 209.85 107.796 209.85 134.15C209.85 160.502 199.169 184.361 181.899 201.631C175.292 208.237 167.721 213.878 159.415 218.327C172.376 212.661 184.062 204.622 193.925 194.76C214.273 174.412 226.858 146.302 226.858 115.252C226.858 84.2019 214.273 56.0918 193.925 35.7439C173.577 15.3965 145.467 2.81101 114.417 2.81101C83.3673 2.81101 55.2572 15.3965 34.9097 35.7439C14.5619 56.0918 1.9764 84.2019 1.9764 115.252C1.9764 146.302 14.5619 174.412 34.9097 194.76C44.772 204.622 56.4587 212.661 69.4195 218.327C61.1139 213.878 53.5424 208.237 46.9361 201.631C29.666 184.361 18.9843 160.502 18.9843 134.15C18.9843 107.796 29.666 83.9382 46.9361 66.6679C59.5503 54.0538 75.6805 44.9565 93.7301 40.9673V42.9043C76.204 46.8611 60.5413 55.7353 48.2721 68.0045C31.344 84.9323 20.874 108.318 20.874 134.15C20.874 159.981 31.344 183.367 48.2721 200.295C56.6499 208.672 66.6097 215.467 77.6644 220.195C71.2641 216.685 65.4199 212.287 60.2987 207.166C46.4485 193.315 37.8819 174.182 37.8819 153.047C37.8819 131.913 46.4485 112.779 60.2987 98.9285C67.2125 92.0146 75.4424 86.418 84.5813 82.5459V84.6045C75.9629 88.367 68.1915 93.7082 61.6347 100.265C48.1267 113.773 39.7716 132.434 39.7716 153.047C39.7716 173.66 48.1267 192.321 61.6347 205.829C68.5353 212.73 76.7812 218.285 85.9443 222.069C81.4349 219.502 77.3051 216.345 73.6612 212.701C63.2308 202.27 56.7795 187.861 56.7795 171.945C56.7795 156.029 63.2308 141.619 73.6612 131.189C81.1435 123.706 90.6736 118.273 101.338 115.799V117.742C91.1963 120.18 82.1341 125.388 74.9976 132.525C64.9089 142.613 58.6693 156.551 58.6693 171.945C58.6693 187.339 64.9089 201.276 74.9976 211.365C80.4325 216.8 86.9848 221.117 94.28 223.944C91.6365 222.332 89.2011 220.413 87.024 218.236C80.0135 211.225 75.6772 201.54 75.6772 190.843C75.6772 180.145 80.0135 170.46 87.024 163.449C89.8825 160.59 93.1865 158.178 96.8213 156.321V158.457C93.7005 160.156 90.8527 162.293 88.3601 164.785C81.6915 171.454 77.5669 180.667 77.5669 190.843C77.5669 201.019 81.6915 210.231 88.3601 216.9C95.0287 223.568 104.241 227.693 114.417 227.693C124.593 227.693 133.806 223.568 140.475 216.9C147.143 210.231 151.268 201.019 151.268 190.843C151.268 180.667 147.143 171.454 140.475 164.785C137.487 161.798 133.989 159.322 130.123 157.498V155.419Z" fill="url(#paint0_linear_2_160)"/>
<path d="M102.07 37.6813V32.3296H104.166C104.928 32.3296 105.561 32.5816 106.066 33.0855C106.569 33.5892 106.822 34.2253 106.822 34.9933V35.0174C106.822 35.785 106.569 36.421 106.066 36.9253C105.561 37.429 104.928 37.6812 104.166 37.6812H102.07V37.6813ZM104.158 32.9294H102.686V37.0812H104.158C104.75 37.0812 105.239 36.888 105.626 36.5013C106.012 36.1146 106.206 35.62 106.206 35.0176V34.9937C106.206 34.3913 106.012 33.8964 105.626 33.5098C105.239 33.1231 104.75 32.9297 104.158 32.9297V32.9294ZM107.886 31.9294H108.486V33.0654H107.886V31.9294ZM107.886 33.7454H108.486V37.6893H107.886V33.7454ZM113.037 34.4495V33.7454H113.629V38.0734C113.629 38.4626 113.525 38.7628 113.317 38.9733C113.109 39.1842 112.811 39.2892 112.421 39.2892H109.957V38.7052H112.365C112.808 38.7052 113.029 38.4811 113.029 38.0332L113.037 37.3132V36.9535H113.014C112.667 37.5079 112.152 37.788 111.469 37.7933C110.888 37.7933 110.407 37.6038 110.025 37.2093C109.644 36.8146 109.454 36.3162 109.454 35.7134C109.454 35.1106 109.643 34.6135 110.021 34.2217C110.4 33.8293 110.885 33.6361 111.478 33.6414C111.814 33.6414 112.115 33.7214 112.381 33.8656C112.648 34.0096 112.859 34.2042 113.014 34.4495H113.037ZM111.557 37.2173C111.989 37.2173 112.344 37.0705 112.621 36.7773C112.899 36.484 113.037 36.1295 113.037 35.7134C113.037 35.2919 112.9 34.9376 112.625 34.6496C112.351 34.3616 111.995 34.2174 111.557 34.2174C111.109 34.2174 110.747 34.3616 110.47 34.6496C110.192 34.9376 110.053 35.2919 110.053 35.7134C110.053 36.1348 110.192 36.4909 110.47 36.7816C110.747 37.0722 111.109 37.2173 111.557 37.2173ZM114.893 31.9294H115.493V33.0654H114.893V31.9294ZM114.893 33.7454H115.493V37.6893H114.893V33.7454ZM119.549 33.7454V34.3213H117.669V36.6655C117.669 36.9587 117.816 37.1053 118.109 37.1053H119.549V37.6893H118.005C117.701 37.6893 117.469 37.6094 117.309 37.4494C117.149 37.2895 117.069 37.0601 117.069 36.7616V34.3213H116.349V33.7454H117.069V32.3296H117.669V33.7454H119.549ZM123.653 34.4495V33.7454H124.245V37.6893H123.653V36.9535H123.629C123.282 37.5079 122.768 37.788 122.085 37.7933C121.504 37.7933 121.022 37.6038 120.641 37.2093C120.26 36.8146 120.069 36.3162 120.069 35.7134C120.069 35.1106 120.259 34.6135 120.637 34.2217C121.016 33.8293 121.501 33.6361 122.093 33.6414C122.429 33.6414 122.73 33.7214 122.997 33.8656C123.264 34.0096 123.474 34.2042 123.629 34.4495H123.653ZM122.173 37.2173C122.605 37.2173 122.96 37.0705 123.237 36.7773C123.514 36.484 123.653 36.1295 123.653 35.7134C123.653 35.2919 123.516 34.9376 123.241 34.6496C122.966 34.3616 122.61 34.2174 122.173 34.2174C121.725 34.2174 121.362 34.3616 121.085 34.6496C120.808 34.9376 120.669 35.2919 120.669 35.7134C120.669 36.1348 120.808 36.4909 121.085 36.7816C121.362 37.0722 121.725 37.2173 122.173 37.2173ZM125.485 36.7373V31.9294H126.085V36.6733C126.085 36.812 126.124 36.9187 126.201 36.9935C126.278 37.0682 126.386 37.1055 126.525 37.1055H127.189V37.6895H126.453C126.138 37.6895 125.898 37.6069 125.733 37.4416C125.568 37.2761 125.485 37.0416 125.485 36.7373V36.7373ZM98.6219 43.3454H100.782V43.9214H98.6303C98.4805 43.9214 98.3619 43.9627 98.2743 44.0454C98.1861 44.1281 98.1419 44.2362 98.1419 44.3693C98.1419 44.476 98.1756 44.5722 98.2421 44.6572C98.3085 44.7426 98.3981 44.7959 98.51 44.8175L100.174 45.1852C100.446 45.2492 100.661 45.3746 100.818 45.5614C100.975 45.748 101.054 45.9696 101.054 46.2254C101.054 46.5346 100.949 46.7893 100.738 46.9893C100.527 47.1891 100.257 47.2894 99.9259 47.2894H97.654V46.7054H99.9179C100.067 46.7054 100.19 46.6614 100.286 46.5734C100.382 46.4854 100.43 46.3693 100.43 46.2253C100.43 45.9747 100.299 45.82 100.038 45.7611L98.374 45.3934C98.1128 45.3401 97.9035 45.2186 97.7463 45.0293C97.5885 44.84 97.51 44.6226 97.51 44.3774C97.51 44.0784 97.6139 43.832 97.8221 43.6374C98.03 43.4427 98.2969 43.3452 98.6219 43.3452V43.3454ZM104.718 43.3454V43.9214H102.838V46.2655C102.838 46.5587 102.985 46.7054 103.278 46.7054H104.718V47.2894H103.174C102.87 47.2894 102.638 47.2093 102.478 47.0493C102.318 46.8894 102.238 46.66 102.238 46.3615V43.9214H101.518V43.3454H102.238V41.9297H102.838V43.3454H104.718ZM107.638 43.3454H108.334V43.9456H107.614C107.198 43.9456 106.869 44.0736 106.626 44.3296C106.383 44.5855 106.262 44.9452 106.262 45.4093V47.2894H105.662V43.3454H106.246V44.1292H106.27C106.494 43.607 106.95 43.3454 107.638 43.3454V43.3454ZM112.277 44.0495V43.3454H112.869V47.2894H112.277V46.5535H112.254C111.907 47.1079 111.392 47.3879 110.709 47.3932C110.128 47.3932 109.647 47.2039 109.265 46.8094C108.884 46.4147 108.694 45.9161 108.694 45.3133C108.694 44.7105 108.883 44.2135 109.261 43.8216C109.64 43.4292 110.125 43.2362 110.718 43.2415C111.054 43.2415 111.355 43.3215 111.621 43.4657C111.888 43.6097 112.099 43.8041 112.254 44.0495H112.277ZM110.797 46.8172C111.229 46.8172 111.584 46.6706 111.861 46.3774C112.139 46.0841 112.277 45.7294 112.277 45.3133C112.277 44.8918 112.14 44.5375 111.865 44.2495C111.591 43.9615 111.235 43.8175 110.797 43.8175C110.349 43.8175 109.987 43.9615 109.71 44.2495C109.432 44.5375 109.293 44.8918 109.293 45.3133C109.293 45.7348 109.432 46.0908 109.71 46.3815C109.987 46.6722 110.349 46.8172 110.797 46.8172ZM116.925 43.3454V43.9214H115.045V46.2655C115.045 46.5587 115.192 46.7054 115.485 46.7054H116.925V47.2894H115.381C115.078 47.2894 114.846 47.2093 114.685 47.0493C114.525 46.8894 114.445 46.66 114.445 46.3615V43.9214H113.725V43.3454H114.445V41.9297H115.045V43.3454H116.925ZM119.485 43.2414C120.104 43.2414 120.603 43.4572 120.981 43.8892C121.36 44.3212 121.53 44.8681 121.493 45.5291H118.077C118.104 45.8973 118.251 46.2038 118.517 46.4494C118.784 46.6947 119.117 46.8171 119.517 46.8171C119.811 46.8171 120.072 46.7491 120.301 46.613C120.531 46.4774 120.696 46.2945 120.797 46.0654H121.421C121.288 46.4706 121.048 46.7934 120.701 47.0334C120.355 47.2734 119.952 47.3931 119.493 47.3931C118.885 47.3931 118.392 47.1932 118.013 46.7933C117.635 46.393 117.445 45.9025 117.445 45.3213C117.445 44.74 117.637 44.2477 118.021 43.8452C118.405 43.4427 118.893 43.2414 119.485 43.2414V43.2414ZM120.397 44.1453C120.147 43.9265 119.837 43.8174 119.469 43.8174C119.101 43.8174 118.791 43.928 118.537 44.1491C118.284 44.3706 118.136 44.6518 118.093 44.9932H120.853C120.8 44.6466 120.648 44.3637 120.397 44.1453ZM125.813 44.0493V43.3452H126.405V47.6732C126.405 48.0624 126.301 48.3625 126.093 48.5731C125.885 48.784 125.586 48.8892 125.197 48.8892H122.733V48.3052H125.141C125.584 48.3052 125.805 48.081 125.805 47.6331L125.813 46.9131V46.5534H125.789C125.442 47.1078 124.928 47.3877 124.245 47.3931C123.664 47.3931 123.183 47.2038 122.801 46.8092C122.42 46.4146 122.229 45.916 122.229 45.3132C122.229 44.7104 122.419 44.2133 122.797 43.8215C123.176 43.4291 123.661 43.236 124.253 43.2414C124.589 43.2414 124.891 43.3214 125.157 43.4655C125.424 43.6095 125.634 43.804 125.789 44.0493H125.813H125.813ZM124.333 46.8171C124.765 46.8171 125.12 46.6705 125.397 46.3773C125.674 46.0839 125.813 45.7293 125.813 45.3132C125.813 44.8917 125.676 44.5373 125.401 44.2493C125.126 43.9613 124.77 43.8174 124.333 43.8174C123.885 43.8174 123.522 43.9613 123.245 44.2493C122.968 44.5373 122.829 44.8917 122.829 45.3132C122.829 45.7346 122.968 46.0907 123.245 46.3813C123.522 46.672 123.885 46.8171 124.333 46.8171ZM129.357 46.8892L130.717 43.3449H131.325L129.525 48.0168C129.413 48.3154 129.262 48.5354 129.073 48.6768C128.883 48.8182 128.637 48.8888 128.333 48.8888H127.429V48.2889H128.333C128.504 48.2889 128.638 48.2542 128.737 48.1849C128.835 48.1156 128.917 48.0008 128.981 47.8405L129.045 47.6729L127.213 43.3449H127.877L129.357 46.889V46.8892Z" fill="white"/>
<path d="M85.8936 151.171C85.0829 151.171 84.4161 150.903 83.8935 150.367C83.3712 149.831 83.1096 149.174 83.1096 148.395C83.1096 147.616 83.3712 146.958 83.8935 146.419C84.4161 145.88 85.0829 145.611 85.8936 145.611C86.7043 145.611 87.3711 145.88 87.8933 146.419C88.416 146.958 88.6776 147.616 88.6776 148.395C88.6776 149.174 88.4176 149.831 87.8975 150.367C87.3775 150.903 86.7096 151.171 85.8936 151.171ZM85.8936 150.579C86.5281 150.579 87.0483 150.367 87.4535 149.943C87.8589 149.519 88.0616 149.003 88.0616 148.395C88.0616 147.787 87.8575 147.271 87.4496 146.847C87.0415 146.423 86.5229 146.211 85.8936 146.211C85.2643 146.211 84.7457 146.423 84.3376 146.847C83.9297 147.271 83.7257 147.787 83.7257 148.395C83.7257 149.003 83.9297 149.519 84.3376 149.943C84.7457 150.367 85.2643 150.579 85.8936 150.579ZM91.7893 147.027C92.2852 147.027 92.6855 147.186 92.9893 147.503C93.2932 147.82 93.4451 148.246 93.4451 148.779V151.075H92.8453V148.883C92.8453 148.505 92.7399 148.198 92.5293 147.963C92.3188 147.729 92.0345 147.611 91.6775 147.611C91.2828 147.611 90.9575 147.752 90.7016 148.035C90.4453 148.318 90.3176 148.675 90.3176 149.107V151.075H89.7173V147.131H90.3092V147.819H90.3255C90.48 147.574 90.6853 147.381 90.9416 147.239C91.1975 147.098 91.4801 147.027 91.7893 147.027V147.027ZM94.5892 150.123V145.315H95.1893V150.059C95.1893 150.198 95.2279 150.304 95.3053 150.379C95.3825 150.454 95.4905 150.491 95.6293 150.491H96.2933V151.075H95.5575C95.2427 151.075 95.0027 150.992 94.8375 150.827C94.672 150.662 94.5892 150.427 94.5892 150.123V150.123ZM97.1252 145.315H97.7255V146.451H97.1252V145.315ZM97.1252 147.131H97.7255V151.075H97.1252V147.131ZM101.069 147.027C101.565 147.027 101.965 147.186 102.269 147.503C102.573 147.82 102.725 148.246 102.725 148.779V151.075H102.125V148.883C102.125 148.505 102.02 148.198 101.809 147.963C101.599 147.729 101.314 147.611 100.957 147.611C100.563 147.611 100.237 147.752 99.9815 148.035C99.7252 148.318 99.5975 148.675 99.5975 149.107V151.075H98.9972V147.131H99.5891V147.819H99.6053C99.76 147.574 99.9652 147.381 100.221 147.239C100.477 147.098 100.76 147.027 101.069 147.027V147.027ZM105.661 147.027C106.28 147.027 106.778 147.243 107.157 147.675C107.536 148.107 107.706 148.654 107.669 149.315H104.253C104.279 149.683 104.426 149.99 104.693 150.235C104.959 150.48 105.293 150.603 105.693 150.603C105.986 150.603 106.247 150.535 106.477 150.399C106.706 150.263 106.871 150.08 106.973 149.851H107.597C107.463 150.256 107.223 150.579 106.877 150.819C106.53 151.059 106.128 151.179 105.669 151.179C105.061 151.179 104.567 150.979 104.189 150.579C103.81 150.179 103.621 149.688 103.621 149.107C103.621 148.526 103.813 148.034 104.197 147.631C104.581 147.229 105.069 147.027 105.661 147.027V147.027ZM106.573 147.931C106.322 147.712 106.013 147.603 105.645 147.603C105.277 147.603 104.966 147.714 104.713 147.935C104.46 148.156 104.312 148.438 104.269 148.779H107.029C106.975 148.432 106.823 148.15 106.573 147.931V147.931ZM114.661 149.587L116.092 151.075H115.293L114.189 149.939L112.901 150.875C112.543 151.126 112.175 151.223 111.797 151.167C111.418 151.111 111.119 150.931 110.901 150.627C110.693 150.339 110.621 150.01 110.685 149.639C110.749 149.268 110.941 148.966 111.261 148.731L112.293 147.987L111.589 147.267C111.397 147.043 111.299 146.815 111.297 146.583C111.294 146.351 111.386 146.149 111.573 145.975C111.759 145.802 111.994 145.715 112.277 145.715H114.437V146.291H112.245C112.085 146.291 111.977 146.357 111.921 146.487C111.865 146.618 111.893 146.737 112.005 146.843L114.253 149.171L115.749 148.083V148.795L114.661 149.587ZM112.565 150.411L113.781 149.523L112.685 148.395L111.637 149.155C111.45 149.299 111.337 149.478 111.297 149.691C111.257 149.904 111.295 150.094 111.413 150.259C111.535 150.441 111.703 150.549 111.917 150.583C112.13 150.618 112.346 150.56 112.565 150.411ZM121.116 151.179C120.498 151.179 119.99 150.977 119.592 150.575C119.195 150.172 118.996 149.68 118.996 149.099C118.996 148.513 119.194 148.02 119.589 147.623C119.983 147.226 120.493 147.027 121.116 147.027C121.73 147.027 122.231 147.226 122.62 147.623C123.01 148.02 123.204 148.513 123.204 149.099C123.204 149.68 123.008 150.172 122.616 150.575C122.224 150.977 121.724 151.179 121.116 151.179V151.179ZM121.116 150.603C121.554 150.603 121.911 150.456 122.188 150.163C122.465 149.87 122.604 149.515 122.604 149.099C122.604 148.678 122.465 148.323 122.188 148.035C121.911 147.747 121.554 147.603 121.116 147.603C120.668 147.603 120.304 147.747 120.024 148.035C119.744 148.323 119.604 148.678 119.604 149.099C119.604 149.521 119.744 149.877 120.024 150.167C120.304 150.458 120.668 150.603 121.116 150.603ZM130.012 145.891H128.572C128.279 145.891 128.132 146.038 128.132 146.331V147.131H130.012V147.707H128.132V151.075H127.532V147.707H125.06V151.075H124.46V147.707H123.74V147.131H124.46V146.251C124.46 145.968 124.545 145.742 124.716 145.571C124.887 145.4 125.113 145.315 125.396 145.315H126.908V145.891H125.5C125.207 145.891 125.06 146.038 125.06 146.331V147.131H127.532V146.251C127.532 145.968 127.617 145.742 127.788 145.571C127.959 145.4 128.185 145.315 128.468 145.315H130.012V145.891ZM130.828 150.123V145.315H131.428V150.059C131.428 150.198 131.466 150.304 131.544 150.379C131.621 150.454 131.729 150.491 131.868 150.491H132.532V151.075H131.796C131.481 151.075 131.241 150.992 131.076 150.827C130.91 150.662 130.828 150.427 130.828 150.123V150.123ZM133.364 145.315H133.964V146.451H133.364V145.315ZM133.364 147.131H133.964V151.075H133.364V147.131ZM137.308 147.027C137.803 147.027 138.204 147.186 138.508 147.503C138.811 147.82 138.963 148.246 138.963 148.779V151.075H138.364V148.883C138.364 148.505 138.258 148.198 138.048 147.963C137.837 147.729 137.553 147.611 137.196 147.611C136.801 147.611 136.476 147.752 136.22 148.035C135.964 148.318 135.836 148.675 135.836 149.107V151.075H135.236V147.131H135.828V147.819H135.844C135.998 147.574 136.204 147.381 136.46 147.239C136.716 147.098 136.999 147.027 137.308 147.027V147.027ZM141.899 147.027C142.518 147.027 143.017 147.243 143.395 147.675C143.774 148.107 143.945 148.654 143.907 149.315H140.491C140.518 149.683 140.665 149.99 140.931 150.235C141.198 150.48 141.531 150.603 141.931 150.603C142.225 150.603 142.486 150.535 142.715 150.399C142.945 150.263 143.11 150.08 143.211 149.851H143.835C143.702 150.256 143.462 150.579 143.115 150.819C142.769 151.059 142.366 151.179 141.907 151.179C141.3 151.179 140.806 150.979 140.427 150.579C140.049 150.179 139.86 149.688 139.86 149.107C139.86 148.526 140.052 148.034 140.436 147.631C140.82 147.229 141.307 147.027 141.899 147.027V147.027ZM142.811 147.931C142.561 147.712 142.251 147.603 141.883 147.603C141.515 147.603 141.205 147.714 140.951 147.935C140.698 148.156 140.55 148.438 140.507 148.779H143.267C143.214 148.432 143.062 148.15 142.811 147.931V147.931ZM102.64 156.627C103.259 156.627 103.758 156.843 104.136 157.275C104.515 157.707 104.685 158.254 104.648 158.915H101.232C101.259 159.283 101.406 159.589 101.672 159.835C101.939 160.08 102.272 160.203 102.672 160.203C102.966 160.203 103.227 160.135 103.456 159.999C103.686 159.863 103.851 159.68 103.952 159.451H104.576C104.443 159.856 104.203 160.179 103.856 160.419C103.51 160.659 103.107 160.779 102.648 160.779C102.041 160.779 101.547 160.579 101.168 160.179C100.79 159.779 100.601 159.288 100.601 158.707C100.601 158.126 100.793 157.634 101.177 157.231C101.561 156.829 102.048 156.627 102.64 156.627V156.627ZM103.552 157.531C103.302 157.312 102.992 157.203 102.624 157.203C102.256 157.203 101.946 157.314 101.692 157.535C101.439 157.757 101.291 158.038 101.248 158.379H104.008C103.955 158.032 103.803 157.75 103.552 157.531V157.531ZM107.096 159.907L108.536 156.731H109.168L107.36 160.675H106.776L104.976 156.731H105.632L107.072 159.907H107.096ZM111.528 156.627C112.147 156.627 112.645 156.843 113.024 157.275C113.403 157.707 113.573 158.254 113.536 158.915H110.12C110.147 159.283 110.293 159.589 110.56 159.835C110.827 160.08 111.16 160.203 111.56 160.203C111.854 160.203 112.115 160.135 112.344 159.999C112.574 159.863 112.739 159.68 112.84 159.451H113.464C113.331 159.856 113.091 160.179 112.744 160.419C112.398 160.659 111.995 160.779 111.536 160.779C110.928 160.779 110.435 160.579 110.056 160.179C109.678 159.779 109.488 159.288 109.488 158.707C109.488 158.126 109.68 157.634 110.064 157.231C110.448 156.829 110.936 156.627 111.528 156.627V156.627ZM112.44 157.531C112.19 157.312 111.88 157.203 111.512 157.203C111.144 157.203 110.834 157.314 110.58 157.535C110.327 157.757 110.179 158.038 110.136 158.379H112.896C112.843 158.032 112.691 157.75 112.44 157.531V157.531ZM116.576 156.627C117.072 156.627 117.472 156.786 117.776 157.103C118.08 157.42 118.232 157.846 118.232 158.379V160.675H117.632V158.483C117.632 158.105 117.527 157.798 117.316 157.563C117.106 157.329 116.821 157.211 116.464 157.211C116.07 157.211 115.744 157.353 115.488 157.635C115.232 157.918 115.104 158.275 115.104 158.707V160.675H114.504V156.731H115.096V157.419H115.112C115.267 157.174 115.472 156.981 115.728 156.839C115.984 156.698 116.267 156.627 116.576 156.627V156.627ZM122.128 156.731V157.307H120.248V159.651C120.248 159.944 120.395 160.091 120.688 160.091H122.128V160.675H120.584C120.28 160.675 120.048 160.595 119.888 160.435C119.728 160.275 119.648 160.046 119.648 159.747V157.307H118.928V156.731H119.648V155.315H120.248V156.731H122.128ZM123.912 156.731H126.072V157.307H123.92C123.771 157.307 123.652 157.348 123.564 157.431C123.476 157.514 123.432 157.622 123.432 157.755C123.432 157.862 123.465 157.958 123.532 158.043C123.599 158.128 123.688 158.182 123.8 158.203L125.464 158.571C125.736 158.635 125.951 158.76 126.108 158.947C126.265 159.134 126.344 159.355 126.344 159.611C126.344 159.92 126.239 160.175 126.028 160.375C125.817 160.575 125.547 160.675 125.216 160.675H122.944V160.091H125.208C125.357 160.091 125.48 160.047 125.576 159.959C125.672 159.871 125.72 159.755 125.72 159.611C125.72 159.36 125.589 159.206 125.328 159.147L123.664 158.779C123.403 158.726 123.193 158.604 123.036 158.415C122.879 158.226 122.8 158.008 122.8 157.763C122.8 157.464 122.904 157.218 123.112 157.023C123.32 156.829 123.587 156.731 123.912 156.731" fill="white"/>
<path d="M106.558 112.572H109.157V113.172H106.59C106.344 113.172 106.149 113.245 106.001 113.392C105.855 113.539 105.781 113.713 105.781 113.916C105.781 114.081 105.834 114.232 105.938 114.368C106.041 114.504 106.19 114.596 106.382 114.644L108.381 115.14C108.744 115.231 109.022 115.405 109.214 115.664C109.406 115.923 109.502 116.204 109.502 116.508C109.502 116.892 109.368 117.225 109.101 117.508C108.835 117.791 108.469 117.932 108.006 117.932H105.294V117.332H107.982C108.243 117.332 108.451 117.251 108.606 117.088C108.76 116.926 108.838 116.737 108.838 116.524C108.838 116.353 108.782 116.193 108.669 116.044C108.558 115.895 108.4 115.793 108.198 115.74L106.19 115.244C105.843 115.159 105.578 114.993 105.394 114.748C105.21 114.503 105.118 114.231 105.118 113.932C105.118 113.569 105.247 113.252 105.506 112.98C105.765 112.708 106.115 112.572 106.558 112.572V112.572ZM116.413 112.572V117.932H115.797V113.516L113.821 117.932H113.285L111.317 113.524V117.932H110.701V112.572H111.541L113.565 117.092L115.589 112.572H116.413ZM123.717 112.572V117.932H123.101V113.516L121.125 117.932H120.589L118.621 113.524V117.932H118.005V112.572H118.845L120.869 117.092L122.893 112.572H123.717Z" fill="white"/>
<path d="M125.689 74.8206L126.905 73.9325L125.809 72.8044L124.761 73.5645C124.574 73.7085 124.461 73.8873 124.421 74.1005C124.381 74.314 124.42 74.5033 124.537 74.6685C124.66 74.85 124.828 74.958 125.041 74.9923C125.254 75.0269 125.471 74.9698 125.689 74.8206V74.8206ZM127.785 73.9965L129.217 75.4845H128.417L127.313 74.3484L126.025 75.2846C125.668 75.5351 125.3 75.6327 124.921 75.5764C124.542 75.5204 124.244 75.3404 124.025 75.0365C123.817 74.7485 123.745 74.419 123.809 74.0486C123.873 73.6779 124.065 73.3752 124.385 73.1405L125.417 72.3966L124.713 71.6767C124.521 71.4525 124.424 71.2246 124.421 70.9924C124.418 70.7604 124.511 70.5579 124.697 70.3847C124.884 70.2112 125.118 70.1248 125.401 70.1248H127.561V70.7008H125.369C125.209 70.7008 125.101 70.766 125.045 70.8964C124.989 71.0271 125.017 71.146 125.129 71.2527L127.377 73.5803L128.873 72.4926V73.2047L127.785 73.9965ZM119.137 71.4446C119.596 71.4446 119.957 71.5938 120.221 71.8925C120.485 72.1914 120.617 72.5833 120.617 73.0686V75.4845H120.017V73.1246C120.017 72.7886 119.927 72.5206 119.749 72.3206C119.57 72.1207 119.326 72.0206 119.017 72.0206C118.697 72.0206 118.432 72.1433 118.221 72.3888C118.011 72.634 117.905 72.9458 117.905 73.3245V75.4845H117.305V73.1246C117.305 72.7833 117.216 72.5126 117.037 72.3127C116.859 72.1127 116.617 72.0153 116.313 72.0206C115.967 72.0206 115.693 72.1715 115.493 72.4568C115.293 72.7421 115.193 73.0686 115.193 73.4368V75.4845H114.593V71.5406H115.177V72.2126H115.193C115.321 71.9832 115.492 71.798 115.705 71.6567C115.919 71.5153 116.164 71.4446 116.441 71.4446C116.745 71.4446 117.01 71.5206 117.237 71.6724C117.464 71.8247 117.633 72.0311 117.745 72.2927H117.761C117.889 72.0365 118.07 71.8313 118.305 71.6767C118.54 71.5221 118.817 71.4446 119.137 71.4446V71.4446ZM111.553 75.0125C111.991 75.0125 112.348 74.8658 112.625 74.5725C112.903 74.2793 113.041 73.9247 113.041 73.5085C113.041 73.0871 112.903 72.7326 112.625 72.4446C112.348 72.1566 111.991 72.0126 111.553 72.0126C111.105 72.0126 110.741 72.1566 110.461 72.4446C110.181 72.7326 110.041 73.0871 110.041 73.5085C110.041 73.9299 110.181 74.286 110.461 74.5766C110.741 74.8672 111.105 75.0125 111.553 75.0125ZM111.553 75.5885C110.935 75.5885 110.427 75.387 110.029 74.9845C109.632 74.5819 109.433 74.0897 109.433 73.5085C109.433 72.9219 109.631 72.43 110.025 72.0326C110.42 71.6354 110.93 71.4366 111.553 71.4366C112.167 71.4366 112.668 71.6354 113.057 72.0326C113.447 72.43 113.641 72.9219 113.641 73.5085C113.641 74.0897 113.445 74.5819 113.053 74.9845C112.661 75.387 112.161 75.5885 111.553 75.5885ZM108.737 72.9485H108.113C108.023 72.6768 107.856 72.4526 107.613 72.2764C107.371 72.1007 107.084 72.0126 106.754 72.0126C106.322 72.0126 105.967 72.1566 105.69 72.4446C105.412 72.7326 105.273 73.0871 105.273 73.5085C105.273 73.9299 105.412 74.286 105.69 74.5766C105.967 74.8672 106.322 75.0125 106.754 75.0125C107.079 75.0125 107.364 74.9232 107.61 74.7445C107.855 74.5657 108.023 74.3352 108.113 74.0525H108.737C108.641 74.5008 108.411 74.8685 108.045 75.1565C107.68 75.4445 107.249 75.5885 106.754 75.5885C106.145 75.5885 105.647 75.3886 105.258 74.9887C104.868 74.5884 104.674 74.0951 104.674 73.5085C104.674 72.9219 104.868 72.43 105.258 72.0326C105.647 71.6354 106.145 71.4366 106.754 71.4366C107.249 71.4366 107.68 71.578 108.045 71.8608C108.411 72.1434 108.641 72.5058 108.737 72.9485V72.9485ZM103.826 75.4845H99.9133V70.1248H103.826V70.7247H100.529V72.4205H103.586V73.0206H100.529V74.8847H103.826V75.4845ZM118.177 81.0365C118.764 81.0365 119.246 81.2245 119.625 81.6168C120.004 82.0088 120.193 82.5057 120.193 83.1086C120.193 83.7114 120.002 84.2099 119.621 84.6044C119.24 84.9991 118.759 85.1938 118.177 85.1886C117.841 85.1886 117.54 85.1044 117.273 84.9526C117.007 84.8006 116.793 84.5992 116.633 84.3486H116.617V86.6843H116.017V81.1405H116.617V81.8448H116.633C116.793 81.5995 117.007 81.4048 117.273 81.2608C117.54 81.1168 117.841 81.0419 118.177 81.0365ZM118.097 84.6125C118.54 84.6125 118.9 84.4673 119.177 84.1767C119.454 83.8861 119.593 83.53 119.593 83.1086C119.593 82.6872 119.454 82.3327 119.177 82.0447C118.9 81.7567 118.54 81.6125 118.097 81.6125C117.66 81.6125 117.304 81.7567 117.029 82.0447C116.755 82.3327 116.617 82.6872 116.617 83.1086C116.617 83.5248 116.756 83.8792 117.033 84.1724C117.311 84.4658 117.665 84.6125 118.097 84.6125ZM123.137 81.1405H123.833V81.7408H123.113C122.697 81.7408 122.368 81.8688 122.125 82.1248C121.883 82.3806 121.761 82.7405 121.761 83.2047V85.0846H121.161V81.1405H121.745V81.9246H121.769C121.993 81.4022 122.449 81.1405 123.137 81.1405V81.1405ZM126.305 85.1886C125.686 85.1886 125.178 84.9871 124.781 84.5846C124.384 84.182 124.185 83.6898 124.185 83.1086C124.185 82.522 124.382 82.0299 124.777 81.6326C125.172 81.2354 125.681 81.0365 126.305 81.0365C126.918 81.0365 127.42 81.2354 127.809 81.6326C128.198 82.0299 128.393 82.522 128.393 83.1086C128.393 83.6898 128.197 84.182 127.805 84.5846C127.413 84.9871 126.913 85.1886 126.305 85.1886V85.1886ZM126.305 84.6125C126.742 84.6125 127.099 84.4658 127.377 84.1724C127.654 83.8792 127.793 83.5248 127.793 83.1086C127.793 82.6872 127.654 82.3327 127.377 82.0447C127.099 81.7567 126.742 81.6125 126.305 81.6125C125.857 81.6125 125.493 81.7567 125.213 82.0447C124.933 82.3327 124.793 82.6872 124.793 83.1086C124.793 83.53 124.933 83.8861 125.213 84.1767C125.493 84.4673 125.857 84.6125 126.305 84.6125ZM133.888 81.0447C134.347 81.0447 134.709 81.1938 134.972 81.4924C135.237 81.7914 135.368 82.1832 135.368 82.6685V85.0846H134.769V82.7247C134.769 82.3887 134.679 82.1207 134.501 81.9207C134.322 81.7208 134.078 81.6207 133.769 81.6207C133.448 81.6207 133.183 81.7432 132.973 81.9887C132.762 82.2339 132.657 82.5459 132.657 82.9246V85.0846H132.056V82.7247C132.056 82.3834 131.967 82.1125 131.788 81.9127C131.61 81.7127 131.369 81.6154 131.065 81.6207C130.718 81.6207 130.444 81.7714 130.245 82.0567C130.045 82.3421 129.945 82.6686 129.945 83.0367V85.0846H129.345V81.1405H129.929V81.8126H129.945C130.073 81.5831 130.243 81.3979 130.457 81.2566C130.67 81.1153 130.915 81.0447 131.192 81.0447C131.497 81.0447 131.762 81.1207 131.988 81.2725C132.215 81.4248 132.384 81.6312 132.497 81.8928H132.513C132.641 81.6366 132.822 81.4313 133.056 81.2766C133.291 81.1221 133.569 81.0447 133.888 81.0447ZM138.384 85.1886C137.766 85.1886 137.258 84.9871 136.86 84.5846C136.463 84.182 136.264 83.6898 136.264 83.1086C136.264 82.522 136.462 82.0299 136.856 81.6326C137.251 81.2354 137.76 81.0365 138.384 81.0365C138.997 81.0365 139.499 81.2354 139.888 81.6326C140.278 82.0299 140.472 82.522 140.472 83.1086C140.472 83.6898 140.276 84.182 139.884 84.5846C139.492 84.9871 138.992 85.1886 138.384 85.1886V85.1886ZM138.384 84.6125C138.822 84.6125 139.179 84.4658 139.456 84.1724C139.733 83.8792 139.872 83.5248 139.872 83.1086C139.872 82.6872 139.733 82.3327 139.456 82.0447C139.179 81.7567 138.822 81.6125 138.384 81.6125C137.936 81.6125 137.572 81.7567 137.292 82.0447C137.012 82.3327 136.872 82.6872 136.872 83.1086C136.872 83.53 137.012 83.8861 137.292 84.1767C137.572 84.4673 137.936 84.6125 138.384 84.6125ZM91.9457 81.8765V79.3245H92.5376V85.0846H91.9457V84.3803H91.922C91.7669 84.6256 91.5565 84.8208 91.2896 84.9648C91.0232 85.1084 90.722 85.1832 90.386 85.1886C89.7989 85.1886 89.3152 84.9991 88.9339 84.6044C88.5525 84.2099 88.362 83.7141 88.362 83.1165C88.362 82.5141 88.554 82.0152 88.938 81.6207C89.322 81.226 89.802 81.0312 90.3776 81.0365C90.7136 81.0365 91.0152 81.1125 91.2817 81.2644C91.5485 81.4164 91.7617 81.6207 91.922 81.8765H91.9457ZM90.4657 84.6125C90.9029 84.6125 91.2591 84.4684 91.5337 84.1804C91.8085 83.8924 91.9457 83.5379 91.9457 83.1165C91.9457 82.6951 91.8085 82.3394 91.5337 82.0487C91.2591 81.7578 90.9029 81.6125 90.4657 81.6125C90.0179 81.6125 89.6549 81.7578 89.378 82.0487C89.1005 82.3394 88.9619 82.6951 88.9619 83.1165C88.9619 83.5379 89.1005 83.8924 89.378 84.1804C89.6549 84.4684 90.0179 84.6125 90.4657 84.6125ZM93.8099 79.3245H94.41V80.4607H93.8099V79.3245ZM93.8099 81.1405H94.41V85.0846H93.8099V81.1405ZM98.9617 81.8448V81.1405H99.5536V85.4685C99.5536 85.8578 99.4496 86.158 99.2417 86.3684C99.0335 86.5793 98.7349 86.6843 98.3456 86.6843H95.8817V86.1005H98.2897C98.7323 86.1005 98.9537 85.8763 98.9537 85.4285L98.9617 84.7084V84.3486H98.9379C98.5909 84.9031 98.0765 85.1832 97.3936 85.1886C96.8123 85.1886 96.3312 84.9991 95.9497 84.6044C95.5684 84.2099 95.378 83.7114 95.378 83.1086C95.378 82.5057 95.5673 82.0088 95.9456 81.6168C96.3244 81.2245 96.8096 81.0312 97.4019 81.0365C97.7379 81.0365 98.0391 81.1167 98.3056 81.2608C98.5724 81.4048 98.7829 81.5995 98.9379 81.8448H98.9617ZM97.4816 84.6125C97.9136 84.6125 98.2685 84.4658 98.5456 84.1724C98.8229 83.8792 98.9617 83.5248 98.9617 83.1086C98.9617 82.6872 98.8245 82.3327 98.5497 82.0447C98.2749 81.7567 97.9189 81.6125 97.4816 81.6125C97.0337 81.6125 96.6709 81.7567 96.3939 82.0447C96.1165 82.3327 95.9777 82.6872 95.9777 83.1086C95.9777 83.53 96.1165 83.8861 96.3939 84.1767C96.6709 84.4673 97.0337 84.6125 97.4816 84.6125ZM100.817 79.3245H101.418V80.4607H100.817V79.3245ZM100.817 81.1405H101.418V85.0846H100.817V81.1405ZM105.473 81.1405V81.7166H103.593V84.0606C103.593 84.354 103.74 84.5006 104.033 84.5006H105.473V85.0846H103.929C103.626 85.0846 103.394 85.0045 103.233 84.8445C103.073 84.6846 102.993 84.4553 102.993 84.1567V81.7166H102.273V81.1405H102.993V79.7247H103.593V81.1405H105.473ZM109.577 81.8448V81.1405H110.169V85.0846H109.577V84.3486H109.553C109.207 84.9031 108.692 85.1832 108.009 85.1886C107.428 85.1886 106.947 84.9991 106.565 84.6044C106.184 84.2099 105.993 83.7114 105.993 83.1086C105.993 82.5057 106.183 82.0088 106.561 81.6168C106.94 81.2245 107.425 81.0312 108.017 81.0365C108.353 81.0365 108.655 81.1167 108.921 81.2608C109.188 81.4048 109.399 81.5995 109.553 81.8448H109.577ZM108.097 84.6125C108.529 84.6125 108.884 84.4658 109.161 84.1724C109.439 83.8792 109.577 83.5248 109.577 83.1086C109.577 82.6872 109.44 82.3327 109.165 82.0447C108.891 81.7567 108.535 81.6125 108.097 81.6125C107.649 81.6125 107.287 81.7567 107.009 82.0447C106.732 82.3327 106.593 82.6872 106.593 83.1086C106.593 83.53 106.732 83.8861 107.009 84.1767C107.287 84.4673 107.649 84.6125 108.097 84.6125V84.6125ZM111.409 84.1324V79.3245H112.009V84.0686C112.009 84.2073 112.048 84.3138 112.125 84.3888C112.203 84.4634 112.311 84.5007 112.449 84.5007H113.113V85.0846H112.377C112.063 85.0846 111.823 85.0019 111.657 84.8367C111.492 84.6711 111.409 84.4368 111.409 84.1326" fill="white"/>
<defs>
<linearGradient id="paint0_linear_2_160" x1="195.267" y1="196.091" x2="33.5734" y2="34.4114" gradientUnits="userSpaceOnUse">
<stop stop-color="#FF0000"/>
<stop offset="0.5" stop-color="#0064FF"/>
<stop offset="1" stop-color="#00FFFF"/>
</linearGradient>
</defs>
</svg>
