<svg width="98" height="15" viewBox="0 0 98 15" fill="none" xmlns="http://www.w3.org/2000/svg">
<path d="M80.8072 0.25114L78.8804 0.252483C78.092 0.252483 77.4483 0.901811 77.4483 1.70581V14.1226H85.8087L86.4622 11.6036H80.8072V0.250611V0.25114ZM91.3332 0.25114L89.4114 0.252483C88.616 0.252483 87.9751 0.901811 87.9751 1.70581V14.1226H96.3376L96.9896 11.6036H91.3332V0.250611V0.25114ZM23.5187 1.69837L23.5214 8.99557C23.5294 10.4861 22.7296 11.8925 20.8012 11.8925C18.8726 11.8925 18.0755 10.4861 18.0782 8.99557L18.0808 0.253012C16.8419 0.253012 14.7121 0.254355 14.7121 0.254355V8.60181C14.694 12.5049 16.9912 14.4556 20.8006 14.4556C24.6134 14.4556 26.9068 12.5049 26.8883 8.60181V0.247559H24.9547C24.1599 0.247559 23.5174 0.89688 23.5174 1.69808L23.5187 1.69837ZM69.7207 8.2078H74.4172V5.68766H69.7207V2.76876H75.5303V0.25114H66.3508L66.3575 12.6714C66.3575 13.4429 66.9496 14.0725 67.7015 14.1232H75.1988L75.8543 11.6041H69.7205V8.2078H69.7207ZM53.7046 7.18555C53.6883 11.4963 56.5582 14.1062 60.3312 14.1239L64.0076 14.1213V11.5898H61.9527C59.493 11.5898 57.1247 10.7643 57.1247 7.14954C57.1247 3.53487 59.493 2.76009 61.9527 2.76009H64.0076V0.247804H60.3629C56.5744 0.247804 53.725 2.86168 53.7046 7.18555ZM6.51537 0.247804H1.75003C0.958697 0.247804 0.314972 0.897165 0.314972 1.69837V14.1213L6.54178 14.1226C10.316 14.1061 13.1874 11.4958 13.1715 7.18502C13.151 2.86115 10.3031 0.247275 6.51537 0.247275V0.247804ZM4.92231 11.5886H3.68672V2.75928H4.92231C7.38085 2.75928 9.75202 3.53487 9.75202 7.14954C9.75202 10.7643 7.38085 11.5886 4.92231 11.5886ZM95.5508 3.22449C96.3701 3.22449 97.0708 2.58956 97.0708 1.71916C97.0708 0.857424 96.3701 0.221274 95.5508 0.221274C94.7241 0.221274 94.0242 0.857424 94.0242 1.71916C94.0242 2.58956 94.7241 3.22449 95.5508 3.22449ZM95.5508 0.472332C96.2321 0.472332 96.7704 1.00742 96.7704 1.71916C96.7704 2.44102 96.2321 2.97514 95.5508 2.97514C94.8632 2.97514 94.3255 2.44102 94.3255 1.71916C94.3255 1.00742 94.8632 0.472332 95.5508 0.472332ZM95.2344 1.83862H95.5342L95.9948 2.59033H96.2892L95.7942 1.8265C96.0519 1.79583 96.2447 1.66024 96.2447 1.34957C96.2447 1.00824 96.0436 0.857423 95.6339 0.857423H94.9699V2.59033H95.2344V1.83862ZM95.2344 1.07967H95.5927C95.7764 1.07967 95.9737 1.1201 95.9737 1.33517C95.9737 1.5997 95.7719 1.61755 95.5492 1.61755H95.2344V1.07967ZM46.1296 0.247804C44.9947 0.247804 44.4999 0.763281 44.1772 1.72408L40.059 13.7921L37.4035 9.81116C39.7314 9.17196 40.5855 7.17674 40.5855 5.36528C40.5855 2.53554 38.1927 0.247804 35.3634 0.247804H30.4069C29.615 0.247804 28.9732 0.897165 28.9732 1.69837V14.1232H32.3192V2.79248H34.3058C37.0807 2.79248 37.4999 4.53488 37.4999 5.36528C37.4999 7.92168 35.112 8.1054 33.4848 8.20447L36.9159 14.1232H41.0855H43.3998L44.1046 11.7209H49.3706L50.0736 14.1232H53.7643L49.0965 0.247804H46.1296ZM44.6394 9.55595L46.7351 2.38623L48.8362 9.55595H44.6394Z" fill="#2B2A29"/>
</svg>
