<svg width="86" height="25" viewBox="0 0 86 25" fill="none" xmlns="http://www.w3.org/2000/svg">
<path d="M61.0804 11.7433V24.2728H68.7085V17.2176H76.3848C80.396 17.2176 83.8161 14.94 85.1375 11.7433H61.0804Z" fill="#006848"/>
<path fill-rule="evenodd" clip-rule="evenodd" d="M85.5355 8.8584V8.83492V8.8112C85.5355 6.35706 84.4795 4.15519 82.8047 2.61759C81.3107 1.2464 79.3257 0.402141 77.1384 0.402141H60.7267C60.7611 1.04081 60.8532 1.66441 60.9935 2.26774C61.0286 2.40227 61.0574 2.53865 61.0971 2.67171C61.113 2.72531 61.1272 2.77946 61.1428 2.83386C62.5042 7.15946 66.5415 10.2965 71.3108 10.2965H85.3967C85.4803 9.82891 85.5328 9.34973 85.5355 8.8584" fill="url(#paint0_linear_2_101)"/>
<path d="M47.5607 2.92385L42.2206 14.5092H41.679V0.402121H34.0923V24.2755H40.5307C42.2205 24.2755 43.7578 23.2913 44.4667 21.7537L49.8064 10.1684H50.3484V24.2755H57.9343V0.402121H51.4959C49.8058 0.402121 48.269 1.38705 47.5607 2.92385" fill="#006848"/>
<path d="M12.2376 3.53945L15.3972 14.5088H15.9392L19.0993 3.53945C19.6356 1.68105 21.3337 0.401714 23.2647 0.401714H30.8404V24.2755H23.2548V10.168H22.7129L18.3777 24.2755H12.9587L8.62428 10.168H8.08267V24.2755H0.496002V0.401714H8.07213C10.0039 0.401714 11.702 1.68105 12.2376 3.53945Z" fill="#006848"/>
<defs>
<linearGradient id="paint0_linear_2_101" x1="60.72" y1="5.3448" x2="85.5334" y2="5.3448" gradientUnits="userSpaceOnUse">
<stop stop-color="#02AFFF"/>
<stop offset="1" stop-color="#1F5BD7"/>
</linearGradient>
</defs>
</svg>
