<svg width="97" height="30" viewBox="0 0 97 30" fill="none" xmlns="http://www.w3.org/2000/svg">
<path d="M61.9186 15.1345C61.9186 14.9987 61.8843 14.7946 61.8503 14.5558C61.8161 14.1821 61.7145 13.773 61.6121 13.3997C60.7273 10.61 58.3465 8.80676 55.5569 8.80676C55.2839 8.80676 54.9783 8.84006 54.7061 8.87406C51.1333 9.3506 48.6843 12.5829 49.1604 16.2574C49.6035 19.5913 52.2563 21.8704 55.5229 21.8704C55.7943 21.8704 56.1003 21.8364 56.3729 21.8024C58.1085 21.5982 59.6392 20.8498 60.7957 19.4205C60.8637 19.3532 60.8977 19.2508 60.8637 19.1484C60.8637 19.081 60.7957 18.9786 60.7273 18.9113C60.5236 18.7745 59.8433 18.4344 59.4683 18.2644C59.367 18.1962 59.2646 18.1618 59.2306 18.1286C59.1281 18.0606 59.0265 18.0606 58.9585 18.0606C58.8568 18.0606 58.7883 18.0946 58.6859 18.1962C57.9375 19.047 57.0196 19.4889 56.0664 19.6257C55.8623 19.6586 55.6925 19.6586 55.5229 19.6586C53.7869 19.6586 52.0181 18.5023 51.5078 16.9033V16.8693L51.5418 16.8357C51.6436 16.8016 52.461 16.427 53.6513 16.427C53.7869 16.427 53.9577 16.427 54.0934 16.4614C54.4339 16.4954 54.7745 16.5287 55.1479 16.5627C55.829 16.6651 56.5093 16.7336 57.3593 16.7336C57.8704 16.7336 58.3465 16.6991 58.8568 16.6311C60.8297 16.2574 61.6461 15.6788 61.6461 15.6788C61.9526 15.5422 61.9186 15.4066 61.9186 15.1345V15.1345ZM59.6736 14.3177C59.3326 14.4201 58.8908 14.5226 58.3465 14.5898C58.0744 14.6238 57.8022 14.6578 57.4274 14.6578C56.8487 14.6578 56.2028 14.6238 55.6245 14.5558H55.5901C55.0118 14.5226 54.5024 14.4882 53.9919 14.4882C53.6172 14.4882 53.2767 14.5226 52.9705 14.5558C52.0181 14.6578 51.2697 14.9644 51.2697 14.9644V14.8964C51.4394 12.9908 53.0731 11.324 55.0119 11.0862C55.1824 11.0518 55.3861 11.0518 55.5569 11.0518C57.3941 11.0518 59.1629 12.4461 59.7068 14.2837V14.3177H59.6736Z" fill="#005991"/>
<path d="M93.0815 9.55481C93.0815 9.38508 92.9458 9.24866 92.775 9.24866H91.1426C90.9722 9.24866 90.8365 9.38508 90.8365 9.55481V21.2581C90.8365 21.4281 90.9722 21.5638 91.1426 21.5638H92.775C92.9458 21.5638 93.0815 21.4281 93.0815 21.2581V9.55481Z" fill="#005991"/>
<path d="M91.9587 5.06437C91.1423 5.06437 90.4624 5.74468 90.4624 6.56108C90.4624 7.37774 91.1423 8.05774 91.9587 8.05774C92.7755 8.05774 93.4557 7.37774 93.4557 6.56108C93.4213 5.74468 92.7755 5.06437 91.9587 5.06437Z" fill="#005991"/>
<path d="M70.0834 21.8704C70.186 21.8704 70.2876 21.8704 70.3897 21.8704C72.0904 21.8704 73.6556 21.2244 74.8125 20.0336C76.0031 18.8426 76.6502 17.1754 76.6502 15.4066C76.6502 11.6977 73.792 8.80676 70.152 8.80676C67.1914 8.80676 64.7083 10.7457 63.9259 13.6374C63.7891 14.1135 63.6537 15.3722 63.6537 16.632V25.8173C63.6537 25.987 63.789 26.1234 63.96 26.1234H65.5922C65.7632 26.1234 65.8988 25.987 65.8988 25.8173V20.0336L66.0009 20.1016C66.818 20.9182 68.3142 21.8024 70.0834 21.8704ZM70.152 11.0518C72.4994 11.0518 74.3023 12.9574 74.3023 15.4406C74.3023 17.9238 72.5667 19.761 70.2532 19.761C69.0971 19.761 68.0081 19.3532 67.2259 18.6049C66.4091 17.8221 65.9668 16.7336 65.9668 15.5086C66.001 13.0248 67.8725 11.0518 70.152 11.0518" fill="#005991"/>
<path d="M40.7235 21.8704C40.8259 21.8704 40.9275 21.8704 41.0299 21.8704C42.7307 21.8704 44.2954 21.2244 45.4526 20.0336C46.6433 18.8426 47.2887 17.1754 47.2887 15.4066C47.2887 11.6977 44.4318 8.80676 40.7918 8.80676C37.8317 8.80676 35.3481 10.7457 34.5657 13.6374C34.4293 14.1135 34.2937 15.3722 34.2937 16.632V25.8173C34.2937 25.987 34.4293 26.1234 34.599 26.1234H36.2325C36.4022 26.1234 36.5387 25.987 36.5387 25.8173V20.0336L36.607 20.1016C37.4567 20.9182 38.9545 21.8024 40.7235 21.8704V21.8704ZM40.7918 11.0518C43.1393 11.0518 44.9425 12.9574 44.9425 15.4406C44.9425 17.9238 43.2065 19.761 40.8935 19.761C39.7369 19.761 38.648 19.3532 37.8657 18.6049C37.0489 17.8221 36.607 16.7336 36.607 15.5086C36.6411 13.0248 38.5124 11.0518 40.7918 11.0518" fill="#005991"/>
<path d="M78.2484 19.829C79.6771 21.122 81.2085 21.8704 83.2499 21.8704H83.3172C86.7878 21.836 88.3526 19.9314 88.3526 18.0602C88.3526 15.4746 85.9028 14.7603 85.1552 14.5894C84.9167 14.5554 84.6782 14.4882 84.406 14.4541C83.7946 14.3517 83.1815 14.2161 82.6032 14.0452C82.1955 13.944 80.9024 13.5017 80.9024 12.5145C80.9024 11.4264 82.0925 10.8477 83.2158 10.8477C84.168 10.8477 84.9507 11.0178 85.9372 11.8002C86.0052 11.8682 86.1408 11.9358 86.2433 11.9358C86.3457 11.9358 86.4469 11.9026 86.5497 11.8342C86.8219 11.6305 87.3321 11.1882 87.672 10.8477C87.74 10.7797 87.774 10.6773 87.774 10.5756C87.774 10.4392 87.672 10.3034 87.6043 10.269C86.2773 9.2146 84.9847 8.77275 83.1475 8.77275C80.5275 8.77275 78.555 10.4392 78.555 12.6849C78.555 14.4541 80.0176 15.7128 82.6372 16.223L84.2704 16.5295C85.3592 16.7331 85.9712 17.3118 85.9372 18.0942C85.9028 18.8769 84.9507 19.6926 83.3856 19.6926C82.0925 19.6926 80.9697 19.1834 80.0176 18.3324C79.9488 18.2644 79.882 18.1958 79.7452 18.1958C79.6771 18.1958 79.5755 18.2299 79.5071 18.2983C79.405 18.3663 78.3168 19.2507 78.18 19.3531C78.112 19.4205 78.112 19.4545 78.112 19.5229C78.1128 19.6593 78.18 19.761 78.2484 19.829" fill="#005991"/>
<path d="M95.395 19.1488C96.1433 19.1488 96.7559 19.7615 96.7559 20.5097C96.7559 21.2581 96.1433 21.87 95.395 21.87C94.6466 21.87 94.0339 21.2581 94.0339 20.5097C94.0679 19.7615 94.6466 19.1488 95.395 19.1488ZM95.395 21.6326C96.0077 21.6326 96.5178 21.1224 96.5178 20.5097C96.5178 19.8971 96.0421 19.3868 95.395 19.3868C94.7824 19.3868 94.2721 19.8971 94.2721 20.5097C94.3061 21.1224 94.7824 21.6326 95.395 21.6326ZM95.6331 20.7139C95.8371 20.6455 95.9393 20.4757 95.9393 20.3049C95.9393 20.0676 95.8028 19.863 95.4975 19.863H94.9528V21.2241H95.2253V20.7478H95.3267L95.6672 21.2241H96.0077L95.6331 20.7139ZM95.4635 20.102C95.5651 20.102 95.6331 20.2032 95.6331 20.272C95.6331 20.3733 95.5651 20.4417 95.4635 20.4417H95.2253V20.102H95.4635Z" fill="#005991"/>
<path d="M24.9719 25.6809C19.256 31.3966 10.0027 31.3966 4.2868 25.6809C-1.42893 19.9654 -1.42893 10.7121 4.2868 4.9962C10.0027 -0.719131 19.256 -0.719131 24.9719 4.9962C30.6872 10.7121 30.6872 19.9654 24.9719 25.6809Z" fill="$font-color"/>
<path d="M26.2984 7.78597C26.5705 8.70517 26.7403 9.65719 26.7403 10.6437C26.7403 13.8759 25.1412 16.6996 22.7264 18.5028C18.5418 21.5987 12.4181 21.5987 3.98041 24.2515C6.53187 27.314 10.3428 29.2529 14.6292 29.2529C22.3178 29.2529 28.5095 23.0273 28.5095 15.3729C28.5095 12.5489 27.6938 9.9633 26.2984 7.78597Z" fill="#005991"/>
<path d="M22.9645 4.21395C20.6511 2.47915 17.7589 1.42424 14.6291 1.42424C6.94048 1.42424 0.748779 7.64982 0.748779 15.3386C0.748779 18.4344 1.76973 21.2925 3.47013 23.5715C12.792 20.8502 20.1748 13.5353 22.9645 4.21395" fill="#ED1A38"/>
</svg>
