<?xml version="1.0" encoding="UTF-8"?>
<!DOCTYPE svg PUBLIC "-//W3C//DTD SVG 1.1//EN" "http://www.w3.org/Graphics/SVG/1.1/DTD/svg11.dtd">
<!-- Creator: CorelDRAW 2018 (64-Bit) -->
<svg xmlns="http://www.w3.org/2000/svg" xml:space="preserve" width="82.6681mm" height="102.763mm" version="1.1" style="shape-rendering:geometricPrecision; text-rendering:geometricPrecision; image-rendering:optimizeQuality; fill-rule:evenodd; clip-rule:evenodd"
viewBox="0 0 1441.78 1792.25"
 xmlns:xlink="http://www.w3.org/1999/xlink">
 <defs>
  <style type="text/css">
   <![CDATA[
    .fil3 {fill:black;fill-rule:nonzero}
    .fil0 {fill:#CF102D;fill-rule:nonzero}
    .fil2 {fill:white;fill-rule:nonzero}
    .fil1 {fill:white;fill-rule:nonzero}
   ]]>
  </style>
 </defs>
 <g id="Слой_x0020_1">
  <metadata id="CorelCorpID_0Corel-Layer"/>
  <g id="_9204420320">
   <g>
    <polygon class="fil0" points="-0,1792.25 710.96,1610.91 1441.78,1790.85 1441.78,984.3 710.96,1164.82 -0,983.01 "/>
    <g>
     <path class="fil1" d="M1150.86 1562.04l-51.63 -8.47c-2.03,-0.32 -3.51,-2.07 -3.51,-4.12l0 -133.19c0,-2.22 1.76,-4.06 3.99,-4.16l37.54 -1.77c2.22,-0.1 3.98,-1.94 3.98,-4.17l-0.05 -57.32c0,-2.38 -1.97,-4.26 -4.35,-4.16l-36.57 1.56c-2.37,0.11 -4.36,-1.79 -4.36,-4.16l0.01 -111.64c0,-2.03 1.47,-3.77 3.48,-4.12l50.59 -8.69c2.01,-0.34 3.46,-2.08 3.46,-4.11l0 -62.06c0,-2.66 -2.46,-4.65 -5.06,-4.07 -18.1,3.98 -79.99,17.6 -108.83,23.97 -1.92,0.43 -3.25,2.11 -3.25,4.07l0.18 428.76c0,1.96 1.36,3.65 3.28,4.08l109.55 24.1c2.6,0.57 5.06,-1.42 5.06,-4.08l0 -3.4 -0.02 -58.71c0,-2.05 -1.47,-3.79 -3.49,-4.12z"/>
     <path class="fil1" d="M641.32 1376.92c-0.97,-0.15 -1.76,-0.87 -2,-1.82l-1.12 -4.63 -33.57 -145.58c-0.34,-1.51 -1.48,-2.7 -2.97,-3.1l-37.85 -8.35c-2.61,-0.58 -5.09,1.39 -5.09,4.07l-0.04 329.51c0,3.38 0.18,10.32 0.18,10.32l0.01 5.32c0.01,2.66 2.47,4.64 5.07,4.06l35.82 -7.8c1.9,-0.43 3.27,-2.12 3.27,-4.08l0.02 -172.38c0,-1.12 0.98,-1.98 2.08,-1.83l1.89 0.25c0.75,0.1 1.36,0.65 1.55,1.39l39.58 162.1c0.53,2.2 2.74,3.56 4.94,3.07l31.35 -6.92c1.9,-0.42 3.27,-2.11 3.27,-4.07l0.01 -6.34 0.05 -286.19c0,-1.97 -1.37,-3.67 -3.29,-4.09l-32.42 -7.07c-2.59,-0.56 -5.05,1.42 -5.05,4.07l-0.26 138.08c0,1.49 -1.32,2.61 -2.78,2.39l-2.65 -0.4z"/>
     <path class="fil1" d="M819.84 1561.29c28.36,6.32 43.97,-17.79 43.97,-46.85l0.03 -128.33c0,-2.3 -1.86,-4.17 -4.17,-4.17l-55.92 -0.07c-2.31,0 -4.17,1.87 -4.17,4.18l0 47.29c0,2.2 1.7,4.02 3.9,4.16l10.89 0.71 -0.52 58.09c-0.05,4.86 -4.27,8.64 -9.11,8.14l-20.11 -1.84c-5.99,-0.81 -10.54,-5.77 -10.85,-11.8 -0.09,-2 -0.21,-4.34 -0.34,-7.12 -0.1,-2.17 -0.09,-4.35 -0.09,-6.52 -0.01,-59.88 0.02,-179.17 0.02,-179.17l0 -11.84c0,-11.18 13.87,-13.33 13.87,-13.33l12.6 -1.52c5.91,-0.8 11.15,3.8 11.14,9.75l-0.02 7.77 0.33 34.01 0.06 3.83c0.04,2.33 1.99,4.18 4.31,4.1l41.68 -1.42c2.26,-0.07 4.05,-1.94 4.03,-4.2l-0.67 -58.12c0,-32.34 -14,-52.12 -39.16,-46.32l-23.87 5.31c0,0 -24.78,4.92 -43.44,9.32 -29.65,6.98 -30.19,20.59 -30.9,50.97l0 98.62c-0.19,0 0.18,0.01 0,0.01l-0.2 111.6c-0.05,27.01 6.77,44.95 33.03,51.33l63.7 13.43z"/>
     <path class="fil1" d="M905.52 1579.63l97.31 21.45c2.55,0.57 4.97,-1.38 4.96,-3.99l-0.13 -55.02c0,-2.01 -1.47,-3.72 -3.46,-4.03l-42.57 -6.6c-1.99,-0.31 -3.46,-2.02 -3.46,-4.04l0 -332.65c0,-2.6 -2.4,-4.55 -4.94,-4l-47.76 10.14c-1.89,0.4 -3.24,2.07 -3.24,4l0.08 370.75c0,1.92 1.33,3.58 3.21,3.99z"/>
     <path class="fil1" d="M467.32 1567.61c0,3.62 -0.02,10.86 -0.02,10.86l-0.01 4.11c0,2.67 2.47,4.65 5.06,4.08l43.53 -9.58c1.93,-0.42 3.28,-2.11 3.28,-4.07l-0.01 -10.3c0,0 0,-116.78 -0.01,-174.72 0,-53.07 0.12,-160.01 0.14,-180.61 0,-1.95 -1.35,-3.64 -3.27,-4.06l-43.58 -9.72c-2.6,-0.58 -5.07,1.4 -5.07,4.07l-0.05 369.93z"/>
     <path class="fil1" d="M157.33 1124.09l-67.32 -14.42c-2.59,-0.53 -5.02,1.45 -5.02,4.09l-0.02 552.31c0,2.67 2.47,4.65 5.08,4.07l54.53 -12.1c1.91,-0.42 3.28,-2.11 3.28,-4.06l0 -195.09c0,-2.2 1.71,-4.03 3.91,-4.16l23.79 -1.39c41.07,-2.51 73.19,-36.38 73.52,-77.52l0.25 -31.74 0.01 -84.75 0.25 -47.38c0.22,-39.2 -26.91,-73.24 -65.16,-81.79l-27.1 -6.06zm5.25 65.3c18.64,4.03 32.03,19.45 32.25,38.53 0.25,21.95 0.56,49.92 0.65,61.58l-0.13 73.1c-0.13,15.94 -11.94,30.76 -29.96,30.76l-13.09 0.7c-2.38,0.13 -4.39,-1.75 -4.39,-4.14 -0.01,-16.55 -0.03,-75.64 -0.03,-101.42 0,-24.91 0.02,-80.06 0.02,-97.14 0,-2.66 2.44,-4.61 5.05,-4.06l9.63 2.09z"/>
     <path class="fil1" d="M426.53 1228.21c0,-30.47 -11.53,-46.62 -40.88,-53.53l-100.51 -22.09c-2.6,-0.57 -5.06,1.41 -5.06,4.07l0.07 466.41c0,2.65 2.45,4.64 5.05,4.09l46.98 -10.11c1.93,-0.41 3.3,-2.11 3.3,-4.1l-0.29 -196.21c-0.01,-2.29 1.82,-4.15 4.1,-4.18 3.32,-0.04 9.02,-0.06 18.53,0.03 10.42,0.11 17.24,8.88 18.08,18.42 0.83,9.31 -0.08,17.05 0,25.74 0.35,40.32 -0.19,77.75 0.63,118.05l0.87 27.21c0.08,2.63 2.56,4.53 5.12,3.93l42.91 -9.33c1.92,-0.42 3.26,-2.1 3.26,-4.06l0.11 -44.77c0,0 0.33,-72.92 0.09,-109.37 -0.15,-23.12 -4.29,-44.55 -29.9,-56.16 23.48,-10.95 27.26,-30.08 27.55,-52.05l0 -101.99zm-51.63 110.45c-0.21,5.57 -0.81,10.11 -1.56,13.75 -1.56,7.51 -8.16,12.9 -15.84,12.93l-18.04 0.06c-2.3,0.02 -4.18,-1.85 -4.18,-4.16 -0.02,-12.65 -0.04,-50.42 -0.04,-67.17l-0.05 0c0,-15.91 0.02,-53.79 0.02,-67.96 0.01,-2.76 2.64,-4.75 5.29,-4.01l14.81 4.12c11.12,3.1 18.99,13.01 19.48,24.54 1.07,28.39 1.17,59.51 0.12,87.91z"/>
     <path class="fil1" d="M1297.2 1298.81l56.19 -1.58c1.34,-0.04 2.39,-1.14 2.4,-2.47l0.6 -141.72c0,-25.23 -27.93,-51.29 -56.76,-43.87l-65.33 14.38c-30.2,7.77 -47.99,32.48 -47.99,63.66l0 45.66c-0.9,48.75 -2.58,66.82 14.2,106.32 8.69,20.46 34.55,54.48 34.55,54.48 0,0 9.83,12.64 27.54,37.85 24.94,35.55 35.26,41 35.26,85.73l-1.72 56.48c0,15.05 -12.84,20.58 -20.35,20.01l-8.76 -0.68c-12.52,-0.96 -22.21,-11.41 -22.21,-23.99l0 -109.43c0,-1.37 -1.11,-2.48 -2.48,-2.48l-53.53 0c-1.36,0 -2.49,1.11 -2.49,2.48l-0.66 132.57c1.13,32.37 22.97,59.53 54.85,65.25l60.25 13.34c16.75,3.44 29.8,-1.36 40.83,-11.61 11.19,-10.38 13.44,-30.97 15.15,-46.13 3.34,-29.58 9.12,-101.98 5.93,-128.79 -3.72,-31.25 -13.76,-49.31 -31.5,-72.74 -7.33,-9.68 -25.28,-34.21 -25.28,-34.21l-26.37 -34.99c-26.33,-37.78 -30.91,-38.86 -30.91,-106.9l1.37 -32.49c0.57,-9.14 4.35,-14.67 11.72,-16.87l9.65 -2.9c13.89,-3.42 21,4.55 21.23,15.45l2.07 97.75c0.04,1.38 1.17,2.47 2.55,2.43z"/>
    </g>
   </g>
   <g>
    <path class="fil2" d="M62.25 767.98c52.4,280.84 392.17,453.04 758.9,384.62 366.73,-68.43 621.54,-351.56 569.14,-632.41 -52.41,-280.85 -392.17,-453.04 -758.9,-384.62 -366.72,68.42 -621.54,351.57 -569.13,632.41z"/>
    <g>
     <path class="fil3" d="M506.79 3.01c-87.55,-3.26 -163.83,78.71 -170.13,182.66 -0.32,5.13 -0.43,10.44 -0.37,16.28 0.05,3.76 2.89,6.9 6.63,7.3 0.27,0.02 0.53,0.04 0.79,0.04 3.43,0 6.45,-2.35 7.24,-5.76 19.29,-83.89 96.98,-142.36 184.49,-139.19 20.14,0.75 39.71,4.76 58.17,11.93 5.53,2.16 11.61,0.18 15.15,-4.87 4,-5.74 3.62,-13.61 -0.88,-18.71 -27.03,-30.62 -62.95,-48.26 -101.09,-49.68z"/>
     <path class="fil3" d="M1116.03 126.74c-1.27,-5.14 -2.45,-9.37 -3.7,-13.28 -14.7,-45.83 -44.29,-82.75 -81.21,-101.29 -26.51,-13.33 -54.02,-15.76 -79.53,-7.04 -26.07,8.92 -47.76,29.34 -61.04,57.52 -2.82,5.98 -1.23,13.06 3.86,17.19 4.87,3.95 11.48,4.06 16.46,0.28 10.47,-7.93 22,-14.1 34.3,-18.29 60.61,-20.73 126.63,8.71 157,69.97 1.28,2.59 3.9,4.13 6.65,4.13 0.86,0 1.72,-0.15 2.55,-0.46 3.55,-1.3 5.57,-5.06 4.65,-8.75z"/>
     <path class="fil3" d="M607.66 344.35c5.9,43.53 -13.92,79.87 -44.25,81 -30.5,1.21 -61.52,-34.35 -67.28,-78.41 -5.88,-44.03 15.69,-79.37 46.12,-80.12 30.39,-0.66 59.56,34.03 65.41,77.52z"/>
     <path class="fil3" d="M1071.9 298.9c3.15,38.42 -15.65,67.78 -42.26,65.51 -26.69,-2.26 -52.16,-36.48 -55.18,-75.34 -3.07,-38.79 17.31,-67.12 43.97,-64.44 26.55,2.72 50.47,35.9 53.47,74.27z"/>
     <path class="fil3" d="M677.02 465.13c-161.23,0 -276.29,196.47 -411.69,196.47 -58.5,0 -75.88,-52.85 -63.15,-91.93 2.04,-6.27 -5.16,-11.47 -10.29,-7.47 -46.42,36.23 -62.41,98.95 -62.41,159.74 0,163.65 166.62,302.91 390.01,302.91 216.65,0 399.4,-133.08 399.4,-325.62 0,-126.51 -100.83,-234.1 -241.87,-234.1z"/>
     <path class="fil3" d="M1018.87 432.06c88.61,0 153.83,62.74 203.1,62.74 44.29,0 44.55,-43.67 31.16,-72.65 -3,-6.49 2.2,-10.97 8.28,-7.43 42.97,25.03 77.99,102.37 77.99,167.98 0,142.43 -111.31,226.7 -231.3,226.7 -113.23,0 -227.69,-86.22 -227.69,-223.46 0,-105.75 72.62,-153.88 138.47,-153.88z"/>
    </g>
   </g>
  </g>
 </g>
</svg>
