<svg width="26" height="26" viewBox="0 0 26 26" fill="none" xmlns="http://www.w3.org/2000/svg">
<path d="M13 0C5.82075 0 0 5.82075 0 13C0 20.1793 5.82075 26 13 26C20.1793 26 26 20.1793 26 13C26 5.82075 20.1793 0 13 0ZM19.8911 17.2976L17.8674 17.3258C17.8674 17.3258 17.4308 17.4113 16.8599 17.017C16.1027 16.497 15.3888 15.1439 14.8319 15.3194C14.2675 15.4993 14.2848 16.7169 14.2848 16.7169C14.2848 16.7169 14.2892 16.9314 14.1602 17.0712C14.0205 17.2218 13.7464 17.2066 13.7464 17.2066H12.8397C12.8397 17.2066 10.8398 17.3723 9.07725 15.535C7.15758 13.5319 5.46108 9.57883 5.46108 9.57883C5.46108 9.57883 5.36142 9.32967 5.46758 9.20183C5.58783 9.061 5.91175 9.05667 5.91175 9.05667L8.07842 9.04583C8.07842 9.04583 8.28208 9.08158 8.42942 9.18992C8.54967 9.27875 8.61792 9.44558 8.61792 9.44558C8.61792 9.44558 8.96783 10.3328 9.43258 11.1367C10.3383 12.7032 10.7586 13.0466 11.0663 12.8787C11.5148 12.6338 11.3804 10.6643 11.3804 10.6643C11.3804 10.6643 11.3891 9.94933 11.1551 9.63083C10.9731 9.38275 10.6308 9.30908 10.4813 9.29067C10.3588 9.27442 10.5582 8.99058 10.8182 8.86275C11.2082 8.67208 11.8972 8.66125 12.7108 8.66883C13.3445 8.67533 13.5276 8.71433 13.7746 8.775C14.5221 8.95592 14.2686 9.65358 14.2686 11.3273C14.2686 11.8636 14.1722 12.6176 14.5578 12.8657C14.7247 12.9729 15.1309 12.8819 16.1438 11.1551C16.6259 10.3361 16.9867 9.37408 16.9867 9.37408C16.9867 9.37408 17.0657 9.20292 17.1882 9.12925C17.3138 9.05342 17.4828 9.07725 17.4828 9.07725L19.7633 9.06317C19.7633 9.06317 20.4479 8.98083 20.5595 9.29175C20.6765 9.61675 20.3038 10.3762 19.3722 11.6188C17.8425 13.6598 17.6724 13.4702 18.9432 14.651C20.1565 15.7788 20.4068 16.3269 20.449 16.3963C20.9506 17.2315 19.8911 17.2976 19.8911 17.2976Z" fill="black"/>
</svg>
